<?xml version="1.0" standalone="no"?>
<!DOCTYPE svg PUBLIC "-//W3C//DTD SVG 1.1//EN" "http://www.w3.org/Graphics/SVG/1.1/DTD/svg11.dtd" >
<svg xmlns="http://www.w3.org/2000/svg">
<metadata></metadata>
<defs>
<font id="bobregular" horiz-adv-x="1705" >
<font-face units-per-em="2048" ascent="1536" descent="-512" />
<missing-glyph horiz-adv-x="1024" />
<glyph horiz-adv-x="0" />
<glyph unicode="&#xd;" horiz-adv-x="1024" />
<glyph horiz-adv-x="0" />
<glyph horiz-adv-x="0" />
<glyph unicode=" "  horiz-adv-x="1024" />
<glyph unicode="&#x09;" horiz-adv-x="1024" />
<glyph unicode="&#xa0;" horiz-adv-x="1024" />
<glyph unicode="!" d="M635 1028q0 27 4 78t17.5 100t40 84t73.5 31q45 -10 70.5 -33.5t36.5 -48.5q12 -28 14 -63q18 -203 33 -373q6 -72 12 -143.5t12 -133t10.5 -106.5t6.5 -64q8 -37 8 -82t-11.5 -87t-35 -75.5t-60.5 -48.5q-37 -14 -71.5 -16t-60 13.5t-40 54.5t-10.5 106q0 43 -3 115 t-7 154.5t-9.5 171t-11.5 163t-11 130t-7 73.5zM721 -229q0 14 4 34.5t17.5 40t40 32.5t71.5 13q37 -2 66 -14q25 -10 43 -31.5t14 -62.5q0 -74 -28.5 -111t-94.5 -37q-31 0 -56.5 14.5t-42 35t-25.5 44t-9 42.5z" />
<glyph unicode="&#x22;" d="M807 1190q16 49 39.5 78.5t48.5 44t50.5 17.5t43.5 -1q61 -31 105 -78q37 -41 62.5 -105.5t8.5 -156.5q-16 -94 -44.5 -141t-56.5 -65.5t-49.5 -18.5h-25.5q-6 0 -29.5 18.5t-29.5 51.5q0 33 21.5 59.5t47.5 26.5q12 4 26.5 14t21 23.5t1 26.5t-31.5 24q-27 10 -68 21 t-76.5 30.5t-56 50.5t-8.5 80zM1182 1200q12 51 34.5 81t47 44t51 15t49.5 -1q61 -29 104 -75q37 -41 62.5 -105.5t9.5 -159.5q-16 -96 -45 -142t-56.5 -62.5t-49 -15.5t-25.5 1t-13.5 3t-19.5 11.5t-18 19.5t-8 28q-8 41 12 65.5t47 30.5q14 0 28.5 8t20.5 20.5t1 26 t-32 23.5q-27 12 -66.5 24.5t-75.5 32t-55.5 49t-2.5 78.5z" />
<glyph unicode="#" d="M164 586q0 35 22.5 49t51.5 20q33 6 73 4q35 -4 64 -8q25 -4 49.5 -5t34.5 -1q16 0 32.5 -1t32 5t29.5 21.5t25 48.5q4 29 -5.5 41t-25.5 16q-18 6 -43 2q-39 -4 -76 -6q-33 -2 -67.5 -1t-63.5 7q-66 10 -85 42t-19 77q0 29 18 47.5t41 30.5q25 14 59 24q43 -2 86 -8 q37 -4 81 -10t85 -10q39 -6 59.5 4t30.5 26q10 18 13 43l73 207q6 25 21 41q12 14 34.5 21.5t63.5 -2.5q39 -6 50.5 -31t7 -55.5t-17.5 -60t-26 -46.5q-6 -10 -12 -28.5t-4 -37t15.5 -32.5t46.5 -21q39 -6 64.5 17.5t41.5 58.5t25.5 72t15.5 59q10 16 24.5 42t36 47.5t49 36 t66.5 7.5q39 -6 51.5 -24.5t10.5 -40.5q-2 -25 -17 -53q-4 -25 -12 -47q-8 -23 -19.5 -47.5t-27.5 -53.5q-23 -33 -23 -51t14.5 -26.5t36.5 -9.5t45 -1q55 0 90 -43t15 -119q-12 -45 -34.5 -68.5t-47.5 -34.5t-47.5 -13t-34.5 -2q-10 0 -32.5 3t-46 2t-43 -12.5t-25.5 -38.5 q-6 -23 12 -30.5t41 -12.5q27 -4 65 0q45 -2 80 -12q29 -10 50.5 -31.5t17.5 -60.5q-6 -43 -22.5 -69.5t-42 -41t-61.5 -18.5t-81 -4t-69.5 -18.5t-34.5 -41.5q-12 -25 -15 -57q0 -16 -2 -39q-4 -41 -12 -94q-6 -23 -12.5 -55.5t-21.5 -61t-41.5 -48t-72.5 -13.5 q-45 0 -66.5 15.5t-29.5 35.5q-8 23 -6 53q12 45 23 86l20 70t16 51t10.5 31.5t1.5 30t-16.5 24.5t-40.5 17q-29 4 -50 -4.5t-38 -20.5q-18 -14 -30 -35l-60 -207q-8 -39 -28 -61q-16 -23 -45 -33t-74 6q-49 16 -61.5 57.5t-4.5 90.5t28.5 101t37.5 91q12 39 1 57.5 t-34 25.5t-50.5 6t-49.5 -1q-23 0 -50.5 10.5t-52 30t-42 47t-17.5 60.5zM783.5 656.5q0.5 -19.5 11 -32t29 -17.5t34.5 -5q35 -12 64 13.5t39 60.5q6 23 -2.5 39t-20.5 26q-14 12 -35 23q-23 10 -52.5 3t-51.5 -62q-16 -29 -15.5 -48.5z" />
<glyph unicode="%" d="M389 115q-4 39 5 78.5t28.5 76.5t42.5 64q10 12 42 60t76 117t97 153t106 170q127 200 281 448q18 27 41 45q20 16 49 22.5t70 -10.5q43 -12 52 -53t0 -89t-29.5 -92t-32.5 -65q-12 -12 -54.5 -77.5t-100.5 -159.5t-125 -204t-128 -211t-107.5 -181t-64.5 -115 q-25 -57 -54.5 -82.5t-58 -27.5t-56.5 15t-48 48q-27 31 -31 70zM522 1040q0 20 4 46t19.5 48.5t45.5 38t83 15.5q41 -6 74 -21q29 -12 49 -37.5t16 -68.5q-10 -86 -41 -129t-98 -43q-39 0 -67.5 16.5t-47 41t-28 50t-9.5 43.5zM778 182q0 18 3 42t17.5 47.5t42 41 t74.5 21.5q41 -6 76 -21q29 -12 52.5 -37.5t23.5 -68.5q-10 -86 -42 -130t-110 -44q-35 0 -60.5 15t-42.5 39t-25.5 49.5t-8.5 45.5z" />
<glyph unicode="&#x26;" d="M342 1134q2 42 16.5 78.5t24.5 69.5q14 33 56 51.5t89 26.5q53 8 119 10q37 0 99.5 -3t128 -19.5t123 -51t85.5 -100.5q25 -66 18 -120t-33 -105t-64.5 -102.5t-81.5 -112.5q-37 -61 -30 -100.5t32.5 -66t55.5 -45t40 -36.5q14 -25 30.5 -31t31 1t24.5 24.5t14 42.5 q6 25 28.5 49t53.5 39.5t62.5 14.5t56.5 -30q25 -33 25 -61.5t-13.5 -52t-35 -42t-40.5 -32.5q-18 -14 -25 -28.5t-2 -27t20 -17.5t44 -1q33 0 55.5 -12t35 -30.5t14.5 -41t-2 -41.5q-4 -18 -16.5 -35.5t-31 -26.5t-44 -7t-58.5 20q-37 18 -68.5 7t-59 -35.5t-51.5 -55 t-48 -53.5q-18 -25 -65.5 -48.5t-115 -29.5t-152.5 14.5t-177 86.5q-94 61 -124 131.5t-17.5 139.5t56.5 132.5t95 110.5t65.5 94t-1 94t-55.5 93t-97 93q-55 47 -73.5 91.5t-16.5 86.5zM608 1065q0 -37 12.5 -68.5t31 -54t39 -36t38.5 -13.5q59 0 94 49t35 123 q0 78 -35 127t-94 49q-18 0 -38.5 -13.5t-39 -37t-31 -55t-12.5 -70.5zM637.5 333q11.5 -50 58.5 -91q20 -23 46 -37.5t52.5 -19.5t49.5 -0.5t39 20.5q29 41 17.5 94t-58.5 96q-20 20 -46 33.5t-52.5 17t-50 -4t-38.5 -27.5q-29 -31 -17.5 -81z" />
<glyph unicode="'" d="M1237 72q14 43 34.5 68.5t44 39t45.5 15.5t40 0q55 -29 92 -70q33 -37 54.5 -93.5t6.5 -137.5q-14 -84 -39.5 -127t-50 -59.5t-43 -16.5h-20.5q-6 0 -27.5 16.5t-27.5 44.5q0 29 19 53.5t42 24.5q12 2 24.5 12.5t18.5 21.5t1 23.5t-28 20.5t-59.5 18.5t-68 27.5t-51 46 t-7.5 72z" />
<glyph unicode="(" d="M55 184.5q6 65.5 13 102.5q2 20 14 68t30.5 112.5t40 139.5t44.5 149q53 174 116 385q12 68 39 116q23 41 65 70t111 10q49 -10 81 -28.5t50.5 -43t25.5 -53t7 -57.5q0 -68 -33 -145q-25 -70 -53 -154q-25 -72 -57.5 -172t-69.5 -217q-37 -111 -23.5 -202t45 -158.5 t67.5 -109.5t42 -54t27.5 -35t34 -55.5t3.5 -75.5t-65 -99q-55 -55 -109.5 -62t-94.5 7q-49 16 -93 55q-117 92 -172 185.5t-73.5 174.5t-12.5 146.5z" />
<glyph unicode=")" d="M924 1149q-2 29 4 57.5t23.5 53t48 43t79.5 28.5q66 18 110 -10.5t71 -69.5q31 -48 47 -114q57 -209 106 -381q20 -74 41 -147.5t37 -137t27.5 -112t15.5 -68.5q6 -37 15.5 -101.5t-6 -145.5t-68 -172t-168.5 -183q-43 -39 -93 -56q-41 -14 -93 -7t-107 63 q-61 55 -73.5 98t-0.5 76t36.5 53.5t37.5 32.5q6 12 41 54t66.5 109.5t46 157.5t-22.5 199q-37 117 -70 215t-57 170q-29 84 -53 152q-37 76 -41 143z" />
<glyph unicode="*" d="M715 983q12 53 33.5 77.5t44 30t46 -6t42.5 -27.5q16 -23 44.5 -44.5t55.5 -27.5t46.5 8.5t19.5 63.5t-7.5 87t-8.5 66.5t11.5 49t53.5 32.5q43 4 73 -2q27 -6 46.5 -22.5t9.5 -57.5q-10 -35 -22.5 -68.5t-15.5 -58t9 -37t53 -4.5q43 8 78 28t63.5 29t54 -2.5t52.5 -64.5 q31 -49 19.5 -83t-41 -52t-63.5 -20.5t-46 10.5q-16 14 -35.5 8t-32 -23.5t-13.5 -42t22 -47.5t50 -48t43.5 -55t15.5 -60.5t-36 -61.5q-37 -37 -69.5 -27.5t-57.5 33.5q-29 29 -53 78q-16 18 -33 35q-14 12 -27.5 23.5t-23.5 11.5q-27 0 -52.5 -37t-53.5 -82 q-12 -23 -39 -41.5t-55.5 -24.5t-55 2.5t-39.5 38.5q-14 31 -8 54.5t21.5 39t32 24.5t24.5 13q8 0 26.5 12.5t35 33t27.5 46t7 52.5q-8 27 -31.5 31t-49 -0.5t-47 -12.5t-28.5 -8q-4 -4 -26.5 -4t-45 12t-38.5 41t-6 82z" />
<glyph unicode="+" d="M406 694q0 80 55 98.5t157 8.5q51 -6 76 7t35 32q10 23 10 53l15 149q0 10 3 29t18.5 36t49 29.5t95.5 12.5q63 0 89.5 -25.5t32 -63.5t-2 -83t-13.5 -84q-6 -35 9.5 -58.5t42 -38t61.5 -20.5t67 -6q41 0 64.5 -10t36 -28.5t16.5 -44t4 -54.5q0 -55 -40 -80t-154 -25 q-57 0 -88 -21.5t-45.5 -50t-16.5 -55t-2 -39.5v-45.5t-11.5 -67.5t-40 -57.5t-85.5 -11.5q-61 6 -93 37t-45.5 72t-13.5 85v79t-7 53t-23.5 28.5t-46 14.5t-74.5 10q-45 4 -72 11.5t-41 21.5t-18 37.5t-4 64.5z" />
<glyph unicode="," d="M1010 117q20 61 50 99t61.5 56.5t63 22.5t56.5 0q78 -39 133 -100q47 -53 79 -135.5t11 -198.5q-20 -121 -56 -181.5t-72 -84t-63.5 -23.5h-31.5q-8 0 -37.5 24.5t-38.5 65.5q0 41 27 76t61 35q16 4 35 17t27 29.5t1 34t-40 29.5q-35 12 -86 26.5t-97 40t-73 65.5 t-10 102z" />
<glyph unicode="-" d="M328 584q0 74 47 108.5t104 46.5q68 14 154 6q27 -4 51 -12q23 -6 47.5 -16t46.5 -25q12 -6 64.5 -13t120 -10t139.5 -2t125 7q111 14 164 -30t53 -167q0 -68 -37 -98.5t-85 -41.5t-92 -8t-56 3q-10 0 -43 3t-80 7t-102.5 8t-108 8t-98.5 7.5t-72 3.5q-41 6 -99.5 10 t-113 22.5t-92 60.5t-37.5 122z" />
<glyph unicode="." d="M1229 -111.5q-12 35.5 12 82.5q31 53 57.5 78t54 32t54 5t57.5 -2q47 -16 80 -43q29 -23 42 -59.5t-9 -90.5q-25 -53 -60.5 -79.5t-69.5 -35.5t-60.5 -5t-32.5 10q-6 0 -34 12t-53.5 36t-37.5 59.5z" />
<glyph unicode="/" d="M392 -399q-5 49 7.5 98t37 95t50.5 79q16 14 56.5 73.5t95.5 145.5t120.5 189.5t131.5 210.5q154 248 340 555q20 33 53 55q29 18 69 27.5t95 -13.5q47 -16 54 -65.5t-6 -108.5t-37.5 -114.5t-41.5 -82.5q-8 -10 -38.5 -59t-77 -124t-103.5 -168t-117.5 -192.5 t-120 -198.5t-110.5 -183t-91 -149.5t-59 -96.5q-33 -72 -66.5 -103.5t-68.5 -34.5t-68.5 18.5t-66.5 58.5q-33 39 -38 88z" />
<glyph unicode="0" d="M407.5 186q-4.5 80 20.5 183q53 205 112.5 367.5t132 269t166 151.5t214.5 17q86 -16 153 -64q29 -20 57.5 -49t50 -69t35 -92t13.5 -118q0 -90 1 -200.5t-9.5 -223t-40 -218t-89 -187.5t-157.5 -132t-248 -50q-143 23 -244 94q-43 31 -80.5 75t-60 105t-27 141z M733 324.5q4 -60.5 23.5 -106.5t52.5 -71.5t80 -25.5q45 0 88 25.5t79 71.5t60.5 106.5t36.5 132.5q23 154 -20 246t-136 92q-94 0 -163.5 -92.5t-92.5 -245.5q-12 -72 -8 -132.5z" />
<glyph unicode="1" d="M270.5 965.5q20.5 60.5 57.5 101.5q42 49 108 86q27 12 76 28.5t113.5 32t139.5 32t153 28.5q84 12 125.5 -19.5t60.5 -72.5q23 -49 20 -115q-6 -252 -12 -457q-2 -88 -5 -174t-6 -158.5t-6 -123t-5 -66.5q-6 -31 -20.5 -66.5t-44.5 -66.5t-77 -51.5t-117 -20.5 q-78 -8 -116.5 12.5t-55.5 49.5q-18 33 -16 73q12 176 21 328q4 63 8 129t8 124t8 104.5t8 70.5q6 51 -15.5 61.5t-51 0t-57 -26.5t-33.5 -16q-6 -6 -33 -21.5t-63.5 -21t-78.5 9t-81 67.5q-33 78 -12.5 138.5z" />
<glyph unicode="2" d="M233 877q6 59 29 104t53.5 78t67.5 54.5t76 35.5q87 33 198 33q4 0 37 -1t82 -6.5t107.5 -15.5t113 -30.5t99.5 -52.5t65 -77q39 -66 27 -144.5t-53 -159.5t-99.5 -158.5t-111.5 -139.5q-53 -57 -71.5 -96t-15.5 -70.5t18 -60.5t32 -64q14 -29 60 -39t101.5 -7 t106.5 16.5t76 29.5q20 12 65 19.5t94.5 -0.5t94.5 -36t67 -83q14 -57 2 -102t-39.5 -74t-66.5 -39t-78 2q-47 16 -111.5 14t-151.5 -8t-197.5 -8t-247.5 14q-68 8 -113 24.5t-71.5 38t-39 46.5t-14.5 49q-6 57 35 125q80 135 153 256q31 51 64 104.5t63.5 102.5t56 91 t44.5 71q37 57 42 89t-5 46q-10 16 -37 18q-23 2 -43 -8q-16 -10 -35 -32.5t-27 -67.5q-6 -47 -28.5 -79t-48 -51.5t-49 -27.5t-29.5 -8q-14 0 -64.5 6t-107 35t-107.5 85t-68 159z" />
<glyph unicode="3" d="M299 1225q6 66 39 100.5t72 50.5q43 21 98 23q59 6 143 0t174 -24.5t177.5 -48.5t152.5 -69q68 -39 102.5 -81.5t47 -92t4 -105.5t-28.5 -122q-27 -66 -37 -112t-2 -87t35 -84t72 -102q39 -59 48 -119.5t-3.5 -122t-43 -128t-69.5 -138.5q-47 -80 -115.5 -133t-146.5 -82 t-156 -36t-143 5q-72 20 -153 55t-140 84.5t-81.5 112t22.5 133.5q47 78 115.5 87.5t142 -15t144.5 -64.5t124 -61q59 -12 110.5 11.5t85 69.5t48 107.5t2.5 127.5q-18 68 -60.5 86t-86.5 14t-82 -22.5t-50 -24.5q-20 -6 -56 -12.5t-73 0t-65.5 33t-34.5 85.5t23.5 91 t72.5 47.5t86 17.5t61 2q20 0 57.5 17.5t66 53t34.5 92t-33 134.5q-41 72 -102 99.5t-126.5 30.5t-126 -8t-99.5 -18q-41 -6 -84 -8t-79 11.5t-59.5 46t-23.5 92.5z" />
<glyph unicode="4" d="M289 458q-10 52 3 110.5t32 107.5q12 27 33.5 66.5t48 85.5t57.5 96.5t61 97.5q70 113 154 238q49 61 101 89.5t101.5 34t90.5 -12t65 -48.5q31 -31 40 -75t0 -88t-36.5 -78.5t-70.5 -47.5q-41 -18 -90.5 -55t-96.5 -85t-87 -100.5t-64 -101.5q-31 -43 -16.5 -60.5 t51 -20.5t83 4.5t76.5 13.5q31 6 44.5 22.5t17.5 39t3 49t-1 51.5q0 31 4 59.5t16.5 51t34 36.5t57.5 14q43 0 63.5 -22.5t30 -60.5t12.5 -88t9 -105q0 -49 26.5 -66.5t62.5 -19.5t75 7t63 15q35 12 75 -18.5t55 -79.5q0 -25 -6.5 -50.5t-26 -47t-58.5 -34.5t-104 -13 q-61 0 -84 -34t-23 -81t14.5 -96t26.5 -80q6 -37 14.5 -102.5t2.5 -129t-34 -110.5t-95 -47q-74 0 -105.5 58t-42 141t-9.5 174.5t-5 158.5q-6 68 -41 94.5t-94.5 30.5t-139 -3t-178.5 -7q-98 0 -142 35t-54 87z" />
<glyph unicode="5" d="M350.5 874.5q-6.5 38.5 4 82.5t45 88.5t102.5 80.5q37 14 89 28.5t111.5 26t123 20.5t124.5 16q143 16 299 26q139 -12 178 -79.5t-10 -219.5q-25 -80 -65.5 -95t-86.5 2t-90.5 49t-74.5 44q-31 6 -87.5 18.5t-115.5 15.5t-109.5 -10.5t-68.5 -56.5t-4 -69.5t57 -49 t113.5 -52t165.5 -78.5q94 -43 153.5 -116t84 -161t14 -188.5t-53.5 -198.5q-43 -100 -103.5 -170t-134 -112t-156.5 -58t-169 -10q-88 12 -149.5 57t-94 102.5t-34.5 119t28 104.5q31 49 65 69.5t71.5 20.5t78.5 -16.5t84 -41.5q100 -49 167 -10t67 176q0 68 -41 116 t-102.5 78t-131 43t-125.5 13q-49 0 -84.5 43t-59.5 98.5t-37 110.5t-19 80q-12 25 -18.5 63.5z" />
<glyph unicode="6" d="M251 290q9 138 68 302q47 123 104.5 215t118 160.5t122 115.5t118.5 78q133 72 273 82q115 12 183.5 -25.5t98 -97t21.5 -126t-47 -111.5q-27 -31 -57.5 -34t-65.5 8t-69 29.5t-65.5 33t-58 16.5t-43.5 -18q-25 -27 -42 -63t-4.5 -84t65.5 -109.5t168 -137.5 q117 -78 171 -160.5t71.5 -159.5t11 -141.5t-12.5 -103.5q-6 -45 -45 -106.5t-107.5 -120t-167.5 -101.5t-226 -49q-86 -4 -174.5 23.5t-165 86t-136 145.5t-88 201t-19.5 252zM711 100q0 -33 15 -64.5t40 -57t56.5 -41t66.5 -15.5q49 0 91 15.5t71.5 41t46 57.5t16.5 64 q0 104 -62.5 165t-162.5 61q-70 0 -124 -60.5t-54 -165.5z" />
<glyph unicode="7" d="M264 1186q0 70 47 109.5t105 60.5q67 22 153 30q66 14 138 23q61 6 140 7t163 -11q88 -6 126 -51t44 -101.5t-8.5 -114t-28.5 -87.5q-6 -33 -10.5 -76t-8.5 -89t-11 -91t-19 -84q-12 -45 -10.5 -69t15 -33t35 -7t46.5 8q18 0 43.5 -12t50 -32.5t41 -48.5t16.5 -58 q0 -51 -45 -95.5t-160 -58.5q-51 0 -78.5 -16.5t-39.5 -34.5q-14 -23 -17 -51q0 -6 -5 -58.5t-11 -119t-11.5 -132t-5.5 -96.5t-11 -73.5t-37.5 -78.5t-72.5 -53.5t-116 0.5q-78 12 -104.5 46t-30.5 69q-4 41 16 90q25 82 49 162q20 66 44 138.5t44 123.5q12 51 4 73.5 t-30.5 29t-56 3.5t-70.5 -3q-63 0 -107.5 28.5t-44.5 106.5q6 37 27.5 56.5t56.5 28.5t82 11t105 2q57 0 85.5 22.5t43 63.5t21.5 101.5t19 136.5q6 76 -31.5 106.5t-93 36.5t-116 -1t-98.5 -7q-45 -6 -92.5 -6t-87.5 15t-65.5 53t-25.5 108z" />
<glyph unicode="8" d="M403.5 -207q4.5 57 58.5 128t181 169q127 104 171 194.5t39 161t-39 118.5t-62 65q-29 23 -79 56.5t-90 82.5t-56.5 116.5t24.5 159.5q20 49 51 83t68 56.5t77.5 34t81.5 17.5q94 10 199 -6q127 -41 201 -100.5t101.5 -133t11 -158.5t-67.5 -178q-51 -92 -56.5 -161.5 t13 -129t50 -114t54.5 -117.5q29 -63 48.5 -139t13.5 -151.5t-44 -148.5t-124 -130t-188.5 -89t-201 -33t-183.5 28.5t-136 93.5q-51 63 -86 115.5t-30.5 109.5zM758 -170q0 -57 53 -106.5t141 -49.5q29 0 57.5 13.5t50 36t35 50t13.5 56.5q0 92 -48 145.5t-108 53.5 q-88 0 -141 -53.5t-53 -145.5zM866 870q0 -72 40 -115.5t87 -43.5t86 44t39 115q0 47 -39 86t-86 39q-25 0 -47 -11t-39.5 -28.5t-29 -40t-11.5 -45.5z" />
<glyph unicode="9" d="M473 705.5q-6 50.5 2 94.5t27.5 81t44.5 67q57 70 147 123q139 76 243.5 93.5t178.5 2t121 -52.5t74 -70q27 -35 35 -83t6 -95q-2 -53 -13 -110q-61 -270 -110 -488q-20 -92 -41 -182t-37 -161.5t-28.5 -119t-14.5 -55.5q0 -16 -4 -49t-21.5 -64.5t-51.5 -55t-93 -17.5 q-59 10 -79.5 47t-22.5 78q-2 47 14 104q53 174 96 320q18 61 35.5 123.5t32 114.5t25 91t12.5 56q12 33 1.5 41t-29.5 2t-39.5 -19.5t-31.5 -23.5q-16 -10 -69.5 -33t-121 -25t-137 30t-118.5 128q-27 57 -33 107.5zM768 803q0 -78 42 -121t91 -43q25 0 48.5 11.5t43 33 t31.5 51t12 68.5q0 27 -12 51.5t-31.5 44t-43 30.5t-48.5 11t-48.5 -11t-42.5 -30.5t-30.5 -44.5t-11.5 -51z" />
<glyph unicode=":" d="M717 201q0 25 6 53.5t23.5 53t50.5 42t86 17.5q45 -6 82 -23q29 -14 52 -42t19 -75q0 -193 -153 -192q-39 0 -70 18.5t-52.5 45t-32.5 55t-11 47.5zM717 858q0 18 6 45t23.5 52.5t50.5 45t86 23.5q45 -6 82 -23q29 -14 52 -42.5t19 -75.5q0 -190 -153 -191 q-39 0 -70 17.5t-52.5 42t-32.5 53.5t-11 53z" />
<glyph unicode=";" d="M664 391q18 55 43.5 87t53 48.5t54 19.5t49.5 1q66 -35 115 -88q41 -47 68.5 -117t9.5 -172q-18 -104 -49 -156.5t-62 -73t-54.5 -20.5h-27.5q-6 0 -32.5 20.5t-32.5 57.5q0 35 23.5 65.5t51.5 30.5q14 2 30 14.5t24 27t2 29.5t-35 25t-74 22.5t-85 34t-63.5 56.5 t-8.5 88zM717 858q0 18 6 45t23.5 52.5t50.5 45t86 23.5q45 -6 82 -23q29 -14 52 -42.5t19 -75.5q0 -190 -153 -191q-39 0 -70 17.5t-52.5 42t-32.5 53.5t-11 53z" />
<glyph unicode="A" d="M98 -206q14 85 80 163q27 39 66 134t84 224t92 282l94 306q106 360 225 793q18 66 56 114q31 41 81 72q38 23 92 23q17 0 36 -2q66 -12 111.5 -57.5t76.5 -109t49.5 -137t30.5 -139.5q6 -37 25.5 -140t45 -244.5t57.5 -305.5t65.5 -321.5t66 -295t63.5 -225.5 q43 -123 53 -208q3 -26 4 -48q0 -53 -18 -92q-24 -55 -85.5 -85t-159.5 -40q-100 0 -154.5 50.5t-85.5 130t-47.5 180t-38.5 200.5q-14 74 -35.5 90.5t-47.5 -5t-53.5 -71.5t-55 -110.5t-54 -122t-49.5 -106.5q-23 -68 -60.5 -134.5t-93.5 -113.5t-128 -63q-24 -6 -50 -6 q-52 0 -110 22q-78 33 -136 96q-58 62 -82 140q-15 49 -15 100q0 30 5 62zM946 694q0 -23 1 -48t6 -48t16.5 -38t34.5 -15q33 0 46 22.5t17 50.5q1 11 1 23q0 24 -5 53l-29 205q6 6 6 14q0 6 -7 11.5t-29 5.5q-23 0 -35.5 -14.5t-16.5 -30.5q-6 -16 -6 -34v-9v-148z" />
<glyph unicode="B" d="M126 1668v7q0 25 7 49q8 26 34 49t79 35q49 11 125 10h14q86 -1 219 -22q131 -20 226.5 -71.5t154.5 -123t82 -155.5q15 -56 15 -112q0 -28 -4 -56q-12 -84 -57.5 -163t-125.5 -138q-67 -59 -89 -130q-14 -46 -14 -93q0 -26 4 -54q12 -76 55.5 -152.5t106 -147 t141.5 -133t165 -107.5q119 -70 184 -148q64 -78 82 -156q7 -31 7 -61q-1 -48 -17 -96q-28 -78 -97 -148q-45 -53 -114.5 -88.5t-148.5 -58t-162 -34.5q-84 -11 -156 -14q-36 -2 -68 -2t-60 2q-56 3 -83 9q-20 6 -59.5 8t-84.5 8.5t-91 20.5t-80 45q-36 31 -52 81 q-10 29 -9 68q0 28 5 62q2 34 2 86q0 39 -1 89q-3 116 -11 264.5t-20.5 318.5t-26.5 338q-33 395 -76 858q0 26 -1 56zM498 1319q0 -18 20.5 -48t59.5 -30q20 0 36.5 29.5t16.5 48.5q0 41 -16.5 61.5t-36.5 20.5q-80 0 -80 -82zM631 -211q0 -20 15 -50t38 -30q41 0 59.5 30 t18.5 50q0 80 -78 80q-23 0 -38 -19.5t-15 -60.5z" />
<glyph unicode="C" d="M31 626v12q0 141 42 293q44 159 150 324q117 160 234.5 259.5t228.5 153.5t213 70q69 11 131 12q30 0 60 -3q207 -19 393 -148q68 -37 116 -86q41 -41 67 -100q13 -30 13 -64q0 -32 -12 -67q-31 -86 -74 -135t-91 -73q-48 -22 -97 -28q-24 -3 -48 -3q-24 1 -47 3 q-46 6 -84 12.5t-61 6.5q-16 8 -43.5 21.5t-64.5 18.5q-13 2 -28 2q-26 0 -55 -6q-46 -9 -96.5 -43t-104.5 -100.5t-109 -177.5q-38 -96 -38 -173q0 -18 2 -34q11 -88 58 -150.5t116.5 -102t138.5 -63.5t122 -33t70 -9q16 0 57 -9t88 -30.5t92 -57.5q46 -36 72 -92 q25 -53 24 -123v-11q-2 -76 -49 -179q-47 -111 -109 -168q-64 -57 -134 -77q-52 -14 -105 -14q-19 0 -39 2q-74 7 -142.5 26.5t-127 42t-96.5 31.5q-29 12 -87.5 55t-128 112.5t-143.5 164t-134 210t-99 249t-41 279.5z" />
<glyph unicode="D" d="M-6 1460q0 66 18.5 116t47 88t66.5 63.5t79 41.5q92 40 211 46q82 9 158 9q122 0 232 -22q179 -36 323.5 -112t254 -184.5t183 -233.5t111.5 -258t38 -258q0 -176 -48 -338t-140 -300t-225.5 -247t-301.5 -174q-169 -67 -279 -95q-100 -26 -174 -25h-16q-80 3 -141 35 t-131 85q-72 55 -104 121q-25 51 -26 105q0 15 2 30q9 70 65.5 140.5t167.5 135.5q111 76 162 154t68 161q14 67 14 138q0 17 -1 34q-4 89 -4 187q0 111 -33.5 175.5t-76.5 96t-82 41t-47 9.5q-20 0 -72.5 4t-113 25.5t-113 69.5t-72.5 136zM920 610q0 -23 7 -57.5t27.5 -68 t57.5 -57.5t96 -24q17 -3 32 -3q30 0 56 12q39 20 63.5 62t34.5 100q6 31 6 64q0 28 -4 58q-25 133 -51 239.5t-88 172.5q-39 33 -69 42q-18 5 -32 5q-10 0 -20 -2q-22 -6 -37.5 -19.5t-25.5 -25.5q-16 -119 -27 -217q-6 -43 -10 -86t-8 -81t-6 -67.5t-2 -46.5z" />
<glyph unicode="E" d="M356 -123q-1 25 -1 49q1 56 7 106q10 72 24.5 125.5t21.5 69.5q0 16 10 84t25.5 163t33 209t32.5 225.5t25.5 207.5t10.5 160q0 104 20.5 162.5t46.5 89.5q31 35 70 45q78 27 147 51q59 23 121 45.5t97 38.5q35 8 96 18q28 4 55 4q34 0 68 -6q62 -12 110.5 -50t59.5 -124 q0 -94 -32 -153.5t-81 -95t-110.5 -56t-120.5 -37.5q-68 -18 -110 -35.5t-67.5 -51.5t-41 -94t-31.5 -163q-7 -47 -7 -84q0 -46 10 -78q19 -60 56 -89t78 -37.5t68 -8.5t65.5 -6t74.5 -27.5t61.5 -61.5t25.5 -107q0 -59 -37 -106.5t-91 -77t-112 -41.5q-36 -8 -66 -8 q-19 0 -36 3q-43 7 -87 13q-10 1 -19 2q-33 0 -61 -16q-36 -20 -59.5 -72t-23.5 -154q0 -61 33 -93t85 -40q23 -4 49 -3q31 0 67 5q64 10 127 28.5t118.5 40t89.5 39.5q43 35 95 36h4q51 1 93 -29q44 -30 74.5 -89t30.5 -145q0 -94 -24.5 -152.5t-69.5 -87.5 q-44 -30 -108 -36q-27 -3 -56 -3q-40 0 -84 5q-70 16 -159 33.5t-170 29.5q-96 14 -195 27q-121 35 -188.5 99.5t-100.5 142t-37 161.5z" />
<glyph unicode="F" d="M194 -288q4 56 19 95q10 31 25.5 110t34 189.5t40 242.5t44 272.5t45 278.5t42.5 259q14 90 39 160t52.5 120t58.5 86t61 58q70 54 148 62q25 8 70 22t104 34.5t129 43t141 47.5q27 7 51 7q32 -1 62 -13q50 -22 84 -68q35 -48 50 -116q10 -45 10 -94q0 -26 -3 -54 q0 -53 -20.5 -86t-54 -52.5t-75.5 -27.5t-84 -12t-81 -5t-66 -7q-31 -8 -62.5 -8.5t-61 -12.5t-56.5 -44t-51 -103q-6 -29 -6 -53q-1 -36 13 -61q24 -42 67 -63.5t98 -27.5t102 -6q12 3 23 3q24 0 40 -12q24 -18 39 -47.5t20 -66.5t5 -68q0 -80 -73.5 -125t-202.5 -45 q-63 0 -101.5 -14t-62 -35.5t-37.5 -47.5t-31 -50q-6 -20 -14 -70.5t-17.5 -117t-20.5 -144.5t-21.5 -155.5t-18.5 -148.5t-14 -124q0 -72 -26 -122q-25 -49 -68 -75q-41 -25 -96 -25h-4q-58 1 -122 32q-63 25 -100 71q-38 46 -54 102q-14 46 -13 92q0 10 1 20z" />
<glyph unicode="G" d="M86 459q0 135 29.5 251.5t79 217t112 182.5t127.5 147q153 155 350 261q182 98 326 120q35 5 69 5q25 0 51 -3q58 -6 104 -37.5t75 -96t29 -169.5q0 -106 -33 -176.5t-84 -112.5t-116.5 -62.5t-130.5 -27.5q-55 -5 -108 -5h-16q-59 1 -98 1q-68 0 -125 -30.5t-97 -98 t-60 -175.5q-13 -76 -13 -174q0 -41 2 -85q0 -106 21.5 -177t55.5 -113t73 -62.5t73.5 -26.5t60 -5t31.5 1q8 0 30 4t43.5 15.5t34.5 29t5 41.5q-8 25 -8 78t22.5 105.5t77 92.5t156.5 40q100 0 159.5 -29t88 -66.5t37 -75.5t8.5 -55q0 -16 7 -73.5t18.5 -131t22.5 -152.5 t19 -138q5 -36 5 -72q0 -22 -2 -43q-5 -57 -28.5 -102t-66.5 -72t-110 -27q-68 8 -112 24.5t-71.5 38t-42 46.5t-22.5 49q0 35 -27.5 42t-62.5 3q-39 -6 -90 -22q-65 -24 -142 -24q-16 0 -33 1q-96 6 -193 46t-189.5 115t-164 184.5t-114.5 254t-43 324.5z" />
<glyph unicode="H" d="M55 -131q4 31 7.5 107.5t4.5 181t1 227.5t-2 246q-5 289 -11 635q4 61 39 114q29 45 91.5 86t179.5 52q15 1 28 1q51 1 85 -17q42 -22 66.5 -63.5t35 -93t11.5 -103.5v-26q0 -38 -2 -72q-3 -46 -3 -75q-10 -43 -18 -91q-3 -17 -2 -34q0 -29 8 -56q14 -42 55 -69.5 t125 -27.5t115.5 58t34.5 140v27q0 69 -12 139q-15 84 -26 137q0 35 -1 84v16q0 42 4 88q5 54 18.5 109.5t41 102.5t74 82.5t115.5 50.5q31 10 59 10q27 1 51 -9q50 -20 88 -63t65.5 -100t47 -113.5t32 -103.5t17.5 -68q0 -43 10.5 -141t29 -224t44 -265.5t56.5 -264.5 q31 -127 60.5 -248.5t29.5 -226t-43 -185.5t-160 -122q-46 -12 -86 -12q-26 0 -48 5q-58 13 -103 48t-77 86t-56.5 104.5t-41 103.5t-30.5 85q-12 51 -37 101t-59.5 87t-74.5 55q-26 12 -53 13q-15 0 -30 -4q-43 0 -78 -31t-55.5 -88t-23.5 -141q0 -10 -1 -21q0 -76 19 -168 q19 -110 19 -211v-10q-1 -106 -32.5 -190t-96 -138.5t-169.5 -64.5q-78 0 -132 29.5t-92 77.5t-59.5 108.5t-34 123t-15.5 120t-3 100.5z" />
<glyph unicode="I" d="M109 -139q0 80 32.5 128t88.5 71q56 24 128 25h9q68 0 143 -13q29 -5 53 -5q48 1 77 21q44 32 62 74q20 43 20 101q0 10 -1 20q4 33 10 82q4 41 7 104t3 152q-8 86 -62 123.5t-122 49.5q-58 10 -111 9h-19h-23q-44 0 -64 6h-51t-70 13.5t-62.5 49t-27.5 107.5 q-2 15 -2 28q1 59 29 97q34 47 82 70q52 26 124 36q145 -6 283 -6q57 0 119.5 1t122 4t115 8.5t98.5 13.5q33 7 62 7q41 0 73 -14q55 -22 91 -59t52.5 -79t16.5 -66q0 -16 3 -62q1 -9 1 -18q1 -37 -9 -76q-12 -49 -47.5 -90t-115.5 -49q-72 -8 -110 -28.5t-56 -43.5 q-23 -25 -25 -55q0 -49 -2 -102q-2 -47 -6 -102.5t-12 -110.5q-2 -12 -2 -23q0 -33 18 -62q24 -38 63.5 -59.5t86.5 -24.5h10q41 0 76 21q24 11 63 11q11 0 24 -1q56 -4 110.5 -29.5t90.5 -73.5q30 -39 30 -94q0 -12 -1 -24q-16 -72 -60 -117t-101.5 -68.5t-121.5 -28.5 q-24 -2 -47 -2q-37 0 -71 5q-37 0 -103.5 -3t-145.5 -8t-163 -10t-155.5 -10.5t-124 -8.5t-68.5 -3q-10 0 -38 -1h-11q-23 0 -51 3q-34 4 -72.5 14.5t-70 31t-52 55t-20.5 88.5z" />
<glyph unicode="J" d="M-10 112.5q0 61.5 8 116.5q0 109 59.5 164.5t167.5 87.5q6 1 12 1q38 0 57 -34q21 -38 30 -88q6 -46 6 -102v-29q14 -72 47 -125q29 -47 77 -85.5t126 -38.5q82 0 136 44t87 116.5t48 165.5t22.5 190.5t9.5 190.5t8 167q0 100 -41 150.5t-99.5 72t-123 22.5t-109.5 1 q-55 0 -101 6t-80 25.5t-52.5 56.5t-18.5 98q0 72 39 115t86 69q55 30 127 46q31 8 76 12t88 6q51 2 104 2h582q55 0 110.5 -13.5t99.5 -44t72.5 -83t28.5 -129.5q0 -154 -64.5 -211.5t-203.5 -57.5q-72 -8 -110.5 -23.5t-58 -41t-27 -61t-13.5 -83.5q-13 -33 -13 -83v-19 q3 -63 4 -158v-22q0 -88 -7 -204q-8 -130 -47 -302q-20 -119 -79 -197.5t-139.5 -125t-176.5 -62.5q-66 -11 -132 -11q-28 0 -57 2q-94 7 -181 34.5t-149 70.5q-92 70 -142 139.5t-71.5 135t-21.5 127z" />
<glyph unicode="K" d="M48 -208q1 68 11.5 133t25.5 118t26 84q12 25 32.5 89.5t45 153.5t52 195.5t54.5 212.5q63 250 135 555q25 102 50.5 160.5t63.5 86.5t91 32q18 1 38 1q41 0 93 -5q37 -4 60.5 -18.5t39 -35t21.5 -44t8 -48.5q1 -9 1 -18q0 -50 -19 -111q-8 -33 -17 -82 q-8 -41 -20.5 -105.5t-28.5 -150.5q-6 -36 -6 -64q1 -46 17 -68q18 -24 44 -24q13 -1 29 5q47 18 105.5 89t105.5 189q37 78 86 123t101.5 65.5t102.5 22.5h20q38 0 70 -6q40 -8 64.5 -20.5t24.5 -18.5q8 -6 27.5 -16t37 -31.5t25.5 -59.5q3 -14 3 -31q0 -30 -9 -71 q-16 -63 -58 -113.5t-97.5 -97.5t-120 -97t-128.5 -114q-37 -43 -39 -94v-9q0 -46 18 -94q20 -52 52.5 -102.5t66 -90.5t60.5 -66.5t33 -32.5q4 -10 22.5 -33.5t36 -55.5t30.5 -70q8 -25 8 -51q0 -14 -2 -28q-7 -41 -37.5 -83t-100.5 -78q-64 -29 -115 -29q-8 0 -15 1 q-56 5 -97 34.5t-69 75t-48.5 93.5t-33.5 92t-24 70q-31 94 -74.5 122t-92.5 28q-51 0 -79 -113.5t-28 -355.5q2 -23 2 -45q-1 -82 -25 -144q-30 -78 -94 -120q-64 -41 -158 -44h-12q-90 0 -200 38q-74 27 -116 77q-42 51 -60 113q-17 59 -16 123v7z" />
<glyph unicode="L" d="M164 -135q2 45 2 76q-1 6 -1 18q0 23 5 69q8 70 24.5 170.5t38 222.5t46.5 247q53 293 127 653q14 98 58 149.5t96 65.5q24 7 48 7q28 0 56 -9q52 -16 79 -53q31 -45 43.5 -111.5t12.5 -137.5t-10.5 -137.5t-24.5 -111.5q-8 -53 -16.5 -110.5t-23.5 -138.5t-38.5 -193.5 t-60.5 -278.5q-19 -67 -19 -113q0 -30 8 -51q20 -54 70 -68q25 -8 57 -7q29 1 63 7q70 14 140 36t130.5 45.5t90.5 29.5q37 6 69 12.5t63.5 5.5t66.5 -14.5t78 -44.5q32 -24 32 -60q0 -8 -2 -17q-8 -48 -33.5 -94t-56 -82.5t-36.5 -43.5q-16 -16 -71.5 -56t-146 -89 t-212 -97t-271.5 -79q-135 0 -223 25.5t-141.5 66.5t-78.5 92q-24 50 -32 102q-6 41 -6 79v18z" />
<glyph unicode="M" d="M-150 10q8 58 23 115q12 33 30.5 97.5t41 148.5t46 179t48.5 191q56 224 119 486q41 117 89 181t94 94q44 29 83 29h3q40 -1 65 -18q25 -8 48 -35.5t45.5 -68.5t43 -94t39.5 -111q25 -57 52.5 -92t54 -53.5t50 -24.5t39.5 -6q8 0 24.5 6t40 24.5t51.5 53.5t60 92 q50 100 102 146q38 34 84 35q17 0 34 -5q82 0 144 -54t79 -185q10 -45 32.5 -115t51 -151.5t60.5 -170t62.5 -166t57.5 -141t43 -96.5q10 -27 27.5 -74t31 -102t18.5 -115q1 -14 1 -27q0 -45 -12 -85q-16 -52 -57.5 -91.5t-119.5 -56.5q-27 -2 -51 -2q-86 0 -138 22 q-66 28 -98 88t-46.5 150t-38.5 207q-35 231 -82 360.5t-95 145.5q-51 0 -83.5 -44t-49.5 -112q0 -84 -47 -130t-129 -46q-51 8 -77.5 32.5t-38.5 53.5q-14 33 -17 70q-2 49 -14 88q-10 33 -33 60.5t-63 27.5h-9q-40 0 -72 -32q-36 -36 -68 -98.5t-57.5 -143t-47 -162.5 t-41 -160t-35.5 -133q-16 -74 -47 -133.5t-71 -96t-84 -46.5q-13 -3 -26 -4q-30 0 -59 18q-49 33 -75 76q-28 44 -36 96q-5 27 -4 56q0 25 4 52z" />
<glyph unicode="N" d="M27 948q0 76 14 155t43 141t72 96q33 27 75 26q12 0 25 -2q45 -4 99.5 -48t109.5 -108.5t109.5 -142.5t100.5 -150.5t79.5 -133t48.5 -89.5q20 -37 49 -85t68 -88q38 -41 86 -61q25 -11 52 -10q26 0 54 9q50 17 58 81q3 23 3 49q-1 47 -9 103q-14 88 -33 186.5t-19 184.5 q-2 39 -2 78q0 59 5 117q9 96 46 172.5t104.5 125t178.5 48.5q11 1 21 1q55 0 89 -27q42 -32 62 -86t24 -123q2 -28 3 -57q-1 -42 -5 -82q-6 -70 -17 -132t-22 -101q-10 -41 -18 -114.5t-15 -163.5t-11.5 -186.5t-7.5 -182.5t-4 -152.5t-1 -95.5q0 -42 5 -106q1 -17 1 -34 q0 -46 -10 -92q-14 -62 -60 -107.5t-147 -53.5q-13 -1 -26 -1q-47 0 -91 18q-54 22 -100.5 62t-85.5 91t-72.5 104.5t-62.5 102.5t-53 84q-29 45 -69 92t-84 86t-90 63.5t-89 24.5q-18 -6 -29.5 -48t-17.5 -103.5t-8 -133t-3 -139.5v-64v-58q1 -56 1 -83q4 -37 8 -86 q3 -39 3 -80v-20q-1 -51 -11.5 -100t-34 -84t-62.5 -53q-23 -10 -53 -10q-21 0 -45 5q-63 12 -105 55.5t-67 101.5t-36 129t-13 139q-1 23 -1 45q0 43 3 83q4 60 8 101q0 25 -1 78t-3 122.5t-3 149.5t-3 160q-4 188 -8 407z" />
<glyph unicode="O" d="M58 232q-5 50 -4 98q0 54 6 108q10 102 30 191q47 213 148 420q8 25 47 87t114.5 122.5t190.5 101.5q81 29 185 29q43 0 89 -5q166 -18 274.5 -88.5t178 -180t107.5 -246.5t65 -287q12 -75 12 -149q0 -77 -13 -153q-26 -150 -84 -280.5t-141 -230t-176 -148.5 q-55 -33 -121 -65q-66 -34 -136 -52q-67 -18 -140 -17h-8q-78 1 -159 35t-164 106.5t-164 195.5q-63 96 -95 200t-42 208zM444 106q18 -108 82 -174q33 -41 79 -68q47 -26 101 -28h7q51 0 110 24q63 26 131 95q90 125 124 248q32 116 32 218v11q-2 106 -29.5 191.5 t-60.5 134.5q-35 51 -81 74.5t-87 33.5q-35 7 -71 7q-14 0 -29 -1q-76 -18 -125 -84.5t-80 -150.5t-50.5 -168t-35.5 -133q-23 -81 -23 -156q0 -38 6 -74z" />
<glyph unicode="P" d="M212 -341q-4 16 -4 34q0 31 12 71q20 62 91 146q70 84 97 202q26 118 31 262q3 80 3 167q0 70 -2 144q-2 67 -2 136q0 104 4 215q2 90 21.5 160t47.5 120t62.5 86t71.5 58q84 53 191 62q10 0 62 2h21q45 0 105 -6q74 -8 157 -33t154.5 -76t120.5 -137t53 -217 q1 -17 1 -34q0 -105 -22 -179q-26 -86 -72 -140.5t-106.5 -82t-122 -40t-119.5 -13.5t-101 -1q-57 0 -84 -20.5t-37 -44.5q-10 -25 -10 -56v-10q5 -86 5 -162q1 -144 -17 -252q-26 -166 -78 -269t-118 -153q-66 -51 -128 -68q-46 -13 -86 -13q-14 0 -28 2q-52 6 -75 14 q-29 20 -58.5 51t-40.5 75zM1024 958q0 -53 55 -53q14 0 25.5 13.5t11.5 39.5q0 16 -11 27.5t-26 11.5q-29 0 -42 -11t-13 -28z" />
<glyph unicode="Q" d="M25 897q4 184 37.5 321.5t86 236.5t118 166t132.5 108q155 94 349 94h8q152 -8 266.5 -64.5t202.5 -143.5t150.5 -195.5t109.5 -221.5q39 -123 46 -238q3 -42 3 -81q0 -70 -8 -133q-13 -99 -39.5 -176.5t-52.5 -125.5q-25 -50 -25 -80v-8q4 -30 31.5 -44.5t77.5 -16.5 t116 -2q66 -10 82 -55q8 -25 8 -54q0 -23 -6 -50q-12 -58 -38.5 -118.5t-45.5 -99.5q-18 -49 -68 -81t-110 -43q-29 -6 -58 -6t-56 6q-56 11 -85 50q-37 27 -71.5 42.5t-72.5 22.5t-82 8t-101 1q-25 -4 -76 -6h-19q-44 0 -99 7q-68 9 -148 32.5t-159 70t-151.5 118t-129 178 t-90 250t-33.5 331.5zM551 459q-1 -5 -1 -11q0 -12 5 -25q8 -20 43 -40q23 -29 73 -37q33 -5 67 -5q17 0 34 1q59 4 127 16q35 0 50.5 17.5t18.5 40t0 44t-3 32.5q-12 0 -24.5 7t-28 12t-33 2t-37.5 -21q-33 -19 -59 -19q-2 0 -3 1q-28 1 -49 11q-23 10 -41 33q-23 10 -45 7 t-39 -11q-20 -8 -37 -22q-14 -14 -18 -33zM572 887v-18q0 -66 49 -140q63 -39 120 -55q25 -6 51 -9q9 -1 18 -1q15 0 30 3q22 5 42.5 19t35.5 43q27 41 51 99.5t28 114.5q1 8 1 16q0 47 -20 85q-23 44 -93 56q-24 4 -47 4q-48 0 -96 -16q-70 -25 -116 -76t-54 -125z" />
<glyph unicode="R" d="M230 1216q2 72 15 129.5t33.5 98.5t45.5 72q55 70 137 98q59 27 131 45q61 15 145 25q39 4 82 5q49 0 103 -6q111 -16 205 -61t165.5 -115.5t119.5 -166t67 -214.5q7 -43 7 -83q0 -70 -20 -130q-32 -94 -82.5 -162.5t-101.5 -109.5t-68 -49q-18 -8 -40.5 -23.5t-45 -43 t-45 -69.5t-41.5 -104q-1 -10 -1 -19q0 -47 31 -95q38 -58 93.5 -110t110.5 -96t82 -71q25 -25 54.5 -63.5t53 -86t35.5 -98.5q6 -27 6 -52q0 -24 -5 -47q-11 -48 -50 -91t-119 -74q-77 -23 -136 -23q-29 0 -55 6q-76 18 -126.5 67.5t-78.5 123.5t-43 152t-24.5 147.5 t-21.5 112.5q-18 55 -35.5 88t-33 50t-29 23.5t-23.5 6.5q-18 0 -24.5 -16.5t-6.5 -39t3 -47t3 -41.5q0 -55 18.5 -171.5t57.5 -264.5q16 -67 18 -139v-7q0 -69 -27 -125q-27 -60 -89 -94q-48 -28 -126 -28q-22 0 -46 2q-109 18 -159 64q-49 47 -61 104q-5 23 -5 46 q1 34 11 70q18 60 46 107q25 29 30 115q2 34 2 74q0 60 -4 133q-8 121 -23 265t-34.5 293.5t-38 292t-30.5 257.5q-13 83 -13 149q1 7 1 14zM774 829q0 -18 12.5 -44.5t34 -52t52 -44t69.5 -18.5q20 0 41 18.5t37 44t25.5 52t9.5 44.5q0 92 -35 132t-78 40q-78 0 -123 -39.5 t-45 -132.5z" />
<glyph unicode="S" d="M217 10q15 126 77 176q55 45 132 45q8 -1 17 -1q87 -6 190.5 -52.5t206.5 -109.5q93 -61 154 -61l2 1q62 0 96 27q41 31 61 92q16 41 16 82q0 32 -10 65q-10 31 -30.5 66t-57.5 70.5t-93 70.5t-138 66q-217 63 -348.5 136t-185.5 155q-41 62 -41 127q1 21 5 43 q18 88 95 180q39 43 96 74.5t125.5 55t143.5 40t147 26.5q170 25 360 29q76 -6 137 -43q53 -33 98.5 -99.5t53.5 -193.5q0 -104 -33 -157.5t-83 -71.5q-33 -12 -70 -13q-20 -1 -40 3q-60 10 -115 29.5t-98 42t-59 32.5q-16 0 -47 6t-64.5 7t-62.5 -8t-37 -42 q-6 -29 7.5 -55.5t37 -49t52 -44t51.5 -41.5q20 -6 74.5 -32t121 -70t134 -104t118.5 -139q51 -78 73 -174q10 -44 11 -92q0 -55 -14 -114q-27 -113 -87.5 -194t-138 -136t-167.5 -86q-88 -31 -172 -43q-67 -10 -126 -10q-15 0 -29 1q-71 3 -112 17q-61 10 -139 39 t-145.5 84t-111.5 140q-39 75 -39 179q0 14 1 29z" />
<glyph unicode="T" d="M106 1098q4 45 21.5 78.5t42.5 56t55.5 37t61.5 22.5q50 13 108 13q25 0 51 -2q25 0 93.5 3t149.5 5q54 1 106 1h52q77 -1 120 -9q29 0 72.5 3t96 3t106.5 -9.5t102.5 -35t85 -70.5t53.5 -117q16 -66 16 -112q1 -32 -7 -55q-18 -56 -68 -78q-41 -18 -99 -18q-11 0 -23 1 q-74 4 -157 14q-7 1 -14 1q-40 0 -70 -30q-35 -36 -57.5 -95.5t-35 -133t-17.5 -146.5t-6 -134.5t-1 -93.5q0 -33 5 -99q4 -55 4 -116v-25q-1 -76 -13 -152.5t-45 -136t-91 -90.5q-36 -19 -87 -19q-31 0 -68 7q-96 10 -140 82q-43 74 -53 180q-3 39 -4 80q0 74 10 156 q16 130 41 253t50 229.5t31 170.5q5 26 5 48q0 17 -3 31q-6 34 -19.5 56t-35 36.5t-44.5 20.5q-37 11 -85 11q-21 0 -44 -2q-12 6 -37.5 3t-57.5 -5q-13 -1 -27 -2q-20 0 -38 2q-32 4 -56 21q-22 17 -34 55q-6 20 -7 49q0 25 5 57z" />
<glyph unicode="U" d="M248 -51q-1 17 -1 32q0 30 3 54q4 27 9 97.5t10 168.5t11.5 215t10.5 234q10 276 22 608q0 37 20.5 73.5t52.5 63.5t72 40q25 8 49 8q15 0 30 -3q92 -14 139 -65.5t61 -157.5q5 -30 5 -90v-21q-1 -76 -5 -169t-10 -192.5t-12 -182t-10.5 -138t-4.5 -59.5q0 -6 -8 -42 t-15 -86q-7 -49 -8 -109v-9q0 -55 12 -103q13 -52 45 -91t93 -50q8 -1 16 -1q64 0 97 44q37 50 47 130q4 35 4 74q0 50 -7 108q-13 102 -35.5 203.5t-50.5 191.5t-48 145q-30 84 -46 174q-8 44 -8 86q0 44 8 84q16 80 74 140.5t172 85.5q32 6 60 6q42 0 76 -14 q54 -22 88 -63.5t51.5 -96.5t24 -107.5t6.5 -94.5v-58q0 -14 2 -69.5t5 -134.5t7 -174t8 -189.5t9 -180.5t10 -147q2 -23 2 -46q1 -45 -7 -95q-12 -76 -40.5 -149t-77.5 -139.5t-121 -113.5q-72 -48 -168 -72q-68 -17 -149 -17q-33 0 -68 3q-121 10 -208 45t-145.5 84 t-92 107.5t-49 116t-17.5 108.5z" />
<glyph unicode="V" d="M90 1023q8 44 34 84t73 83q45 43 85 48q13 2 26 2q24 0 44 -7q37 -12 66 -43q8 -16 18 -38t21 -44q10 -25 22 -51q57 -111 107 -209q20 -43 40.5 -86t39 -83t33 -74t22.5 -54q47 -66 81 -72q5 -1 10 -1q31 0 71 30q23 16 43 67.5t40.5 122t44 152.5t54.5 160 q23 68 53.5 129t72.5 102t95 55q19 5 39 6q38 0 82 -18q51 -12 80 -44t41 -76t12 -95t-8 -100t-20.5 -93.5t-22.5 -72.5q-10 -23 -29.5 -71t-44 -110.5t-54.5 -133t-60.5 -139t-59.5 -129t-53 -99.5q-31 -61 -72 -126t-89 -118t-100.5 -88t-105.5 -35q-61 0 -107 19.5 t-80 49.5t-57.5 65.5t-37.5 70.5q-10 16 -39 74.5t-69 139.5t-85 174t-87 181t-74.5 162t-47.5 113q-31 70 -43 123q-7 32 -7 60q0 19 3 37z" />
<glyph unicode="W" d="M-12 1094q4 36 17 62t32 44q43 41 119 51q119 -10 191.5 -45t112.5 -84t52 -106.5t12 -111.5t-7 -100t-7 -73q0 -41 -8 -87t-12 -100q-1 -13 0 -26q0 -43 8 -91q12 -62 53 -132q20 -49 37.5 -53t35 16.5t35 58t38 73.5t45 63.5t57.5 27.5q47 -6 75.5 -47t54 -86t56.5 -82 t86 -37q63 0 87 51.5t27 123.5q1 22 1 45q0 52 -5 107q-7 79 -7 134q0 37 6 87t21.5 103.5t41 103.5t65.5 84t94 45q19 4 41 4q39 0 85 -13q78 -14 121 -57t59 -101q13 -47 13 -99q0 -13 -1 -25q-4 -66 -18 -125.5t-33.5 -106.5t-34.5 -68q-16 -27 -43.5 -71.5t-61.5 -99 t-70 -114t-68.5 -114.5t-56 -103.5t-34.5 -78.5q-23 -41 -50 -75t-57 -58q-31 -24 -61 -34q-15 -5 -29 -5q-16 0 -32 6q-63 0 -85.5 40t-39.5 101q-61 127 -127 127q-16 8 -30.5 -5t-27.5 -34.5t-24.5 -46.5t-17.5 -41q0 -8 -5 -25.5t-23.5 -36t-51.5 -36t-88 -23.5 q-55 0 -98 31t-75 75t-51.5 94t-27.5 87q-16 33 -42 120t-60.5 202.5t-76.5 245.5t-89 247q-29 61 -38 111q-6 34 -6 62q0 13 1 24z" />
<glyph unicode="X" d="M139 878v9q1 23 9 45q10 26 26 53q39 61 117 127q76 56 135 74q40 12 74 13q15 0 29 -3q44 -8 76 -34.5t52.5 -58.5t32.5 -61.5t17 -42.5q0 -29 5 -62.5t21.5 -62t46 -48t80.5 -19.5q49 0 80 27.5t48.5 62.5t26.5 69.5t15 51.5q4 8 15.5 37.5t31 66.5t46 74t63.5 61.5 t83 29.5q7 1 14 1q40 0 89 -24q86 -48 104 -110q8 -29 8 -58q0 -32 -10 -62q-20 -58 -62 -109t-77 -79q-43 -35 -75.5 -65.5t-56 -66.5t-38 -81t-22.5 -109q-1 -11 -1 -21q0 -45 22 -80q26 -44 65 -76t80 -53.5t63 -35.5q20 -6 48 -32.5t44 -63.5q13 -30 14 -64q0 -8 -1 -17 q-4 -44 -47 -87q-35 -48 -79 -66q-38 -15 -73 -15h-12q-41 3 -75 21.5t-48 40.5q-41 41 -91.5 72t-133.5 59q-9 1 -18 1q-38 1 -74 -21q-44 -26 -75.5 -65t-52 -80t-26.5 -62q-6 -20 -48 -53q-42 -32 -98 -50q-36 -11 -73 -12q-21 0 -41 4q-58 10 -101 74q-39 64 -39 124v12 q4 66 33 116.5t69 84.5t68 40q35 14 73 30.5t70.5 43t56.5 67.5t30 105q0 57 -42 104t-108.5 86t-147.5 72t-159 61q-39 18 -56.5 41t-19.5 49z" />
<glyph unicode="Y" d="M72 1054q10 48 61 96t143 85q45 23 84 32q35 8 65 8h7q33 -1 58.5 -10.5t44.5 -23.5q44 -33 71 -88q16 -23 37 -67t47.5 -87t61.5 -71q28 -24 64 -24q7 0 15 1q47 0 86 25.5t74 68.5t67 99.5t62 118.5q31 61 85.5 104t110.5 61q31 9 59 9q24 0 46 -7q49 -14 72 -67 t25 -127v-11q0 -69 -23 -147q-25 -84 -80 -170t-147 -164q-61 -51 -93 -109.5t-43 -117.5q-9 -41 -9 -82q0 -17 2 -35q5 -57 16.5 -106t24 -87t18.5 -59q0 -14 6 -49t8 -79v-22q0 -34 -4 -68q-6 -46 -31.5 -85t-75 -63.5t-131.5 -24.5q-88 0 -138 21.5t-74.5 60.5t-27.5 93 q-1 19 -1 38q0 39 4 84q6 66 17.5 141.5t17.5 159.5v21q0 74 -24 138q-28 73 -76 132t-110.5 105.5t-126 81t-122.5 59t-100 41.5q-70 31 -101 75q-24 34 -24 70q0 11 2 22z" />
<glyph unicode="Z" d="M150 983q-7 34 -7 62q0 38 13 65q22 47 57 70q39 27 94 37q55 18 122 29t138.5 17.5t146 7.5t142.5 1q160 -2 328 -17q0 -6 33.5 -10t75.5 -16t80 -42t44 -87q1 -7 1 -14q0 -33 -16 -72q-18 -47 -51.5 -98.5t-76.5 -101.5t-88 -96t-87 -84t-71 -63q-45 -43 -98 -84 t-99.5 -80.5t-74.5 -80.5q-21 -32 -21 -65q0 -10 2 -19q13 -38 71 -48q41 -7 88 -7q20 -1 41 1q71 4 140.5 15.5t106.5 19.5q37 6 81 8h12q37 0 71 -11q38 -13 64 -45t26 -89q0 -59 -19.5 -102t-51.5 -73t-69.5 -44t-74.5 -14q-25 0 -97.5 -12.5t-169 -24t-206.5 -18.5 q-42 -3 -83 -3q-65 -1 -127 7q-100 12 -178.5 45.5t-113.5 101.5q-16 37 -16 78q0 35 12 73q24 84 79.5 169t129 165t142.5 144.5t119 104.5t58 46q14 14 34.5 29.5t35 32t19.5 34t-9 39.5q-14 23 -57 25h-15q-38 1 -86 -7q-58 -10 -119 -26t-112 -31q-51 -23 -103 -31 q-18 -3 -35 -3q-33 1 -62 11q-44 16 -74.5 58.5t-38.5 122.5z" />
<glyph unicode="\" d="M392 1203q9 46 59 63q49 18 85.5 10t61.5 -25q29 -20 49 -51q170 -279 311 -504q59 -96 119 -190t110 -172t86 -132.5t48 -68.5q25 -29 46.5 -69.5t32.5 -86t7 -89.5t-33 -76q-25 -35 -55.5 -55.5t-64 -18.5t-66.5 31.5t-64 93.5q-14 29 -48 88t-80 136t-100 167 t-110.5 180t-109.5 174t-97 151.5t-75 111.5t-41 55q-14 25 -35.5 75t-33 103t-2.5 99z" />
<glyph unicode="a" d="M136 337q1 73 6 130t5 86t15.5 105.5t53.5 168t99.5 178.5t154.5 134q75 38 172 38q24 -1 49 -3q128 -12 296 -115q16 -31 33 -43q14 -10 29.5 -6t25.5 49q10 31 35 63.5t58.5 57t74.5 32.5q10 2 20 1l62 -17q43 -23 74 -45.5t46 -54.5q14 -30 14 -69v-5q-1 -43 -21 -107 q-23 -63 -38 -163q-14 -98 -18 -208q-2 -42 -1 -84q-1 -68 3 -136q6 -110 27 -195q13 -95 13 -162q0 -37 -4 -65q-11 -80 -95 -80q-53 -10 -95 -14q-9 -1 -17 0q-32 0 -56 10q-31 14 -51.5 48t-30.5 97q-23 61 -42 72.5t-35.5 -2t-25.5 -38t-9 -32.5q-8 -8 -37 -34.5 t-75 -59.5t-105 -65q-58 -32 -124 -48q-48 -12 -99 -12q-19 0 -37 2q-72 6 -142 49q-70 35 -112 96.5t-63.5 136t-27.5 155.5q-5 69 -5 133v21zM588 338q8 -56 44 -92t89 -46q12 -2 25 -3q41 0 83 24q88 0 125 40q38 41 46 105q4 32 4 68t-4 76q-8 80 -9 162 q0 59 -25.5 77.5t-56.5 20.5q-37 0 -80 -16q-45 -43 -84 -92q-35 -41 -71.5 -95.5t-61.5 -111.5q-26 -49 -26 -94q0 -12 2 -23z" />
<glyph unicode="b" d="M309 -8q0 119 29 221q18 47 35.5 121t33 162t29 184t25.5 190q27 219 51 469q10 45 34.5 109.5t68.5 118t111 83.5q42 19 95 20q31 0 66 -7q68 -18 101.5 -62.5t41.5 -106.5q3 -23 3 -47q0 -43 -9 -91q-14 -76 -38.5 -159t-58.5 -168t-65 -167q-33 -68 -33 -120 q1 -6 1 -12q4 -56 35.5 -99t81.5 -74t104.5 -53.5t104.5 -38t81 -27.5q47 -18 87 -55t66 -86q24 -49 32 -109q2 -17 3 -34q0 -44 -14 -91q-6 -45 -30.5 -104t-64.5 -122.5t-94.5 -126t-122 -112t-146.5 -80t-167 -30.5q-178 18 -280.5 96t-149.5 183.5t-47 224.5zM641 23 q0 -37 19.5 -79t78.5 -71q46 -22 84 -22q11 -1 21 1q46 8 78 31q36 25 61 70q0 29 9 58.5t9 60t-20 60.5t-82 58q-61 0 -120.5 -10t-119.5 -67q-18 -47 -18 -90z" />
<glyph unicode="c" d="M283 478v10q0 168 65 343q33 90 81 151.5t105.5 101.5t119 61.5t120.5 30.5q51 7 103 8q92 0 190 -23q82 -29 150 -76q55 -41 102 -102t47 -152q0 -68 -22.5 -110.5t-58.5 -68.5t-80 -34q-36 -7 -71 -6h-16q-43 2 -81 13.5t-60 27.5q-35 9 -72 23q-30 11 -58 12 q-7 0 -13 -1q-34 -3 -60 -29.5t-37 -94.5q-5 -28 -5 -54q0 -95 68 -149q86 -68 267 -67q90 0 134 -30q45 -29 61 -71q16 -39 15 -83v-5q-1 -46 -1 -79q0 -23 -24.5 -67t-84 -84t-157.5 -62q-47 -10 -105 -10q-63 0 -139 12q-145 23 -255 117t-168 234t-60 313z" />
<glyph unicode="d" d="M302 188q7 60 32.5 109t65.5 86t87 55q31 12 81 27.5t104.5 38t104.5 53.5t82 74t36 99v11q0 52 -33 121q-31 82 -64.5 167t-59.5 168q-24 83 -38 159q-8 48 -9 90q0 25 3 48q8 62 41 106.5t103 62.5q35 7 66 7q52 0 94 -20q66 -30 110.5 -83.5t69 -118t34.5 -109.5 q23 -250 50 -469q12 -94 25 -190t29.5 -184t34 -162t35.5 -121q29 -102 29 -221t-47 -224.5t-149.5 -183.5t-280.5 -96q-88 0 -167 30.5t-146.5 80t-121.5 112t-94 126t-65 122.5t-31 104q-13 48 -13 92q0 16 2 33zM723 71.5q0 -30.5 9 -60t9 -58.5q25 -45 62 -70 q31 -23 77 -31q10 -2 20 -2q38 0 85 23q59 29 78.5 71t19.5 79q0 43 -18 90q-59 57 -118.5 67t-121.5 10q-61 -29 -81.5 -58.5t-20.5 -60z" />
<glyph unicode="e" d="M334 551q33 172 110 303q33 55 79 108.5t107.5 93.5t140.5 62q62 17 135 16q20 0 42 -1q195 -10 314.5 -68.5t186.5 -141.5t89.5 -181.5t22.5 -190.5t-32 -170t-86 -136.5t-127 -91t-153 -32.5q-56 8 -97 8q-17 0 -31 -1q-48 -5 -71.5 -21.5t-25.5 -44.5v-9q0 -25 10 -55 q12 -35 43 -43q18 -5 37 -4q15 0 31 2q37 6 73.5 20.5t59.5 24.5q12 12 47 20q10 2 21 2q25 0 52 -12q38 -18 66.5 -69.5t28.5 -155.5q0 -51 -51 -99.5t-134 -79.5q-84 -30 -188 -39q-28 -2 -56 -2q-78 -1 -154 17q-106 24 -205 89t-169.5 179.5t-104.5 287.5 q-20 103 -20 231q0 86 9 184zM881 489q29 -27 59 -47q27 -16 59.5 -30.5t65.5 -14.5h98q35 0 52.5 14.5t27.5 30.5q10 20 12 47q0 35 -1 68t-10 59.5t-27.5 42t-53.5 15.5h-98q-33 0 -65.5 -15.5t-59.5 -42t-43 -59.5t-16 -68z" />
<glyph unicode="f" d="M106 629q0 63 26 98t72 50.5t108.5 18.5t133.5 3q37 -4 61.5 8t40 34.5t24 54.5t10.5 65q1 17 1 35q0 65 -14 143q0 119 43 199.5t120 121.5q75 40 179 40h5q108 -1 235 -46q78 -31 134 -84t91 -117.5t51.5 -135t17.5 -133.5v-8q0 -57 -13 -104q-13 -49 -37 -73 q-37 -27 -81 -38q-20 -5 -39 -5q-22 0 -43 7q-38 13 -67.5 57t-38.5 126q0 90 -30 123q-28 29 -62 29h-8q-39 -4 -75 -35t-44 -68t-15 -80q-4 -25 -4 -48q0 -16 2 -31q5 -37 25.5 -60.5t65.5 -23.5q55 0 84 -20.5t43 -50.5t16 -63.5t2 -60.5t-6 -45t-23.5 -29.5t-51 -16.5 t-89.5 -5q-55 0 -88.5 -31t-52 -86t-25 -131t-6.5 -166q0 -61 4.5 -133t5.5 -144v-18q0 -62 -6 -118q-6 -66 -27.5 -113t-61.5 -71q-26 -15 -65 -15q-19 0 -42 4q-59 6 -89 59t-37 134q-3 35 -3 74q0 50 5 104q9 98 23.5 190t31 169t22.5 120q2 19 2 36q0 48 -17 77 q-22 40 -56 56q-30 13 -61 13h-9q-35 -2 -54 -10q-29 0 -70 -1h-5q-38 0 -74 12q-39 13 -67 49t-28 108z" />
<glyph unicode="g" d="M218 -236q-5 23 -5 46q0 40 15 80q22 65 91 124q70 55 121 66q20 3 38 3q30 0 57 -11q43 -17 81.5 -52.5t86 -73.5t105.5 -68t140 -36q20 -1 38 -1q94 0 144 35q58 42 78 110q16 52 16 111q0 17 -1 35q-6 79 -15 144q-8 66 -40 90q-30 21 -73 21h-7q-48 -2 -101 -22.5 t-102 -45.5q-33 -23 -97.5 -41t-139.5 -21h-20q-65 0 -132 17q-76 19 -135.5 71t-90.5 145q-20 62 -20 146q0 44 6 95q8 113 39 189.5t77 126t101 74t113 32.5q36 5 75 5q103 0 224 -38q60 -28 93 -28q7 0 12 2q34 6 44 26q7 13 7 31q0 15 -5 35q-1 16 -1 31q0 30 5 55 q8 33 31 59.5t72 26.5q90 0 135 -31t63 -67q20 -37 20 -81q0 -8 -1 -16l108 -1040v-37q0 -138 -26 -234q-31 -110 -89.5 -179.5t-136 -107.5t-166.5 -56.5t-182.5 -23.5t-179.5 -9q-18 -1 -36 -1q-63 0 -124 17q-77 21 -141.5 60.5t-110 95t-58.5 116.5zM618 762 q0 -166 166 -166q39 0 74 40t35 126q0 39 -35 73.5t-74 34.5q-82 0 -124 -34.5t-42 -73.5z" />
<glyph unicode="h" d="M425 -215q7 88 22.5 177t33 169t27.5 135q26 131 26 277v52q-6 175 -65 404q-14 51 -14 92v11q2 46 14 80.5t33.5 60t46.5 43.5q57 44 141 60q51 0 83 -18.5t50.5 -46.5t25.5 -60.5t8 -61.5t-1 -51.5t-2 -26.5q0 -6 -3 -44t-7 -93t-9.5 -119.5t-9.5 -121t-7 -98.5t-3 -52 q-8 -8 -15 -24.5t-7 -32t9 -24.5t32 -1q53 31 91 31t62.5 -15.5t36.5 -39t12 -37.5q8 -6 20.5 -41t31 -83t46 -102.5t66.5 -99.5q31 -31 62.5 -76t57.5 -95q26 -51 40 -103q12 -43 12 -80q0 -8 -1 -16q-3 -44 -28.5 -75.5t-80.5 -41.5q-42 -11 -75 -11q-35 0 -59 12 q-50 24 -76 69.5t-36 101t-19 92.5q-8 39 -17 82t-24.5 81.5t-40 66.5t-61.5 36q-31 4 -50.5 -18.5t-30.5 -59.5t-16 -84t-6 -89q0 -21 -0.5 -39.5t0.5 -34.5q1 -32 1 -42t1 -40v-10q1 -25 -3 -56q-4 -37 -13.5 -77t-30 -70.5t-52.5 -46.5q-20 -10 -49 -11q-17 0 -36 4 q-66 6 -98.5 53.5t-42.5 119.5q-6 42 -6 89q0 34 3 70z" />
<glyph unicode="i" d="M514 -156v-11q0 -53 18 -101q20 -54 64.5 -90.5t122.5 -36.5t126 34.5t74.5 88t35.5 116t10 119.5q0 27 -1 70t-3.5 93t-3.5 105.5t-3 108.5q-6 125 -10 264q-14 82 -39 135q-23 45 -59 65q-10 6 -21 5q-29 0 -69 -35q-33 -25 -60 -61q-23 -33 -44 -82t-27 -121 q0 -63 -12.5 -144t-28 -160t-31.5 -148.5t-23 -112.5q-14 -43 -16 -101zM638 1122v12q0 37 5 74q6 20 21 43q12 16 34.5 36t57.5 34t71.5 14t67.5 -14t50.5 -42t19.5 -71q0 -49 -3.5 -93t-18.5 -77.5t-51 -53t-99 -19.5q-55 0 -89 22.5t-49.5 57t-16.5 77.5z" />
<glyph unicode="j" d="M318 -100q-1 -13 -1 -27q0 -44 17 -104q20 -80 53 -146.5t83 -115t119.5 -76t164.5 -27.5q94 0 168.5 22.5t127 72.5t80 131t27.5 196q0 61 1 135t2 155t2 162.5t3 159.5q4 180 11 367v7q0 28 -15 48q-14 20 -49 34q-23 8 -59 8q-22 0 -49 -3q-33 2 -58 -18 q-23 -18 -40 -61.5t-17 -129.5q4 -57 12 -153.5t13 -206.5q2 -63 2 -126q0 -49 -2 -98q-3 -114 -19 -205t-50 -149.5t-91 -58.5q-20 -2 -38 -2q-52 0 -81 17q-39 24 -55.5 58.5t-16.5 68.5v48q0 6 1 28.5t-4 45.5t-21.5 41t-53.5 18q-19 4 -37 4t-36 -4q-35 -8 -60.5 -36.5 t-33.5 -79.5zM826 1197v13q0 37 5 74q8 20 23 43q12 18 34.5 37.5t57.5 36.5q37 14 74 14t67.5 -14.5t50 -44t19.5 -72.5q0 -51 -3 -96t-19.5 -79t-51 -54.5t-100.5 -20.5q-57 0 -90 22.5t-49.5 59.5t-17.5 81z" />
<glyph unicode="k" d="M495 -328q1 60 8 116t15 102.5t8 66.5q4 14 11.5 74.5t16.5 147.5t20.5 193.5t21.5 215.5q24 254 55 569q8 47 18.5 89t32 74t59.5 50.5t101 18.5q47 0 70.5 -29t29.5 -77q2 -20 2 -43q0 -32 -4 -68q-8 -62 -21 -127.5t-29.5 -129t-26.5 -116.5q-2 -21 -2 -38 q0 -25 5 -39q9 -24 26.5 -28t39 6.5t42 25.5t37 30.5t22.5 21.5q14 0 50 24q36 22 78 38q29 11 56 11q13 0 25 -2q38 -7 63 -71q12 -48 12.5 -87t-12.5 -69q-25 -60 -65.5 -96.5t-85 -49.5t-60.5 -13q-8 0 -34.5 -8.5t-56.5 -26.5t-53.5 -46t-23.5 -67q0 -41 29 -93 t72 -107.5t95 -108.5t99 -92q47 -31 73.5 -82t26.5 -104.5t-28.5 -100.5t-91.5 -69q-21 -5 -40 -5q-45 -1 -75 27q-43 38 -75 100t-59.5 128.5t-66.5 105.5q-33 31 -49 21.5t-25 -31.5q-8 -27 -10 -74l-12 -70q-4 -29 -7 -62.5t-3 -55.5q0 -16 6 -51q3 -16 3 -32 q0 -19 -4 -37q-7 -34 -40 -56q-24 -17 -74 -17q-18 0 -39 2q-63 0 -97 32t-47 81q-12 46 -12 100v8z" />
<glyph unicode="l" d="M659 -324v1391q0 16 2.5 53t17.5 73q15 37 47 61q24 18 64 18q13 0 27 -2q45 -10 75 -49t49.5 -92.5t28.5 -117t12 -123.5q2 -30 1.5 -59t-1.5 -56q-3 -54 -9 -87q0 -23 1 -76t2 -126.5t3 -159.5t4 -174q6 -205 12 -451q11 -57 11 -105q0 -21 -2 -40q-6 -55 -37 -100.5 t-107 -45.5q-14 -1 -28 -1q-30 0 -52 6q-32 9 -55 26.5t-37 42t-20 51.5q-12 41 -12 91q0 25 3 52z" />
<glyph unicode="m" d="M-10 823q0 33 19.5 64t48 49t64.5 20h6q33 0 65 -22q41 -25 71.5 -28t48.5 3q23 8 37 25q57 59 117 90q49 26 105 26h4q58 -1 110 -67q51 -74 85 -110.5t59.5 -49t48 -5.5t50 20.5t64.5 29t94 19.5q19 2 37 2q72 0 128 -26q71 -32 121 -86t79 -120.5t39 -124.5 q0 -51 4 -92t15.5 -98t27.5 -143t41 -228q0 -59 4 -119q1 -15 1 -30q0 -43 -9 -79q-12 -48 -51 -78t-123 -30q-68 0 -108 34t-62.5 90.5t-29.5 126.5t-8 142v28q0 57 3 112q4 68 4 119q7 48 7 88q-1 71 -21 115q-32 70 -99 85q-33 8 -57 -6t-36.5 -41.5t-12.5 -63.5t18 -69 q8 -39 8 -79q-1 -3 -1 -5q0 -43 -17.5 -78.5t-53.5 -59t-95 -23.5q-49 8 -77 49t-40 87t-14 86t-2 50q0 8 -1 26.5t-7.5 37t-19.5 32.5t-38 14q-27 8 -46.5 -11t-35.5 -48q-18 -33 -31 -78q-6 -78 -14 -153q-6 -66 -15.5 -138.5t-17.5 -132.5q-8 -59 -14 -108t-20.5 -81 t-42.5 -42q-10 -4 -22 -4q-23 0 -54 12q-59 8 -85 44t-32 77q-3 19 -3 39q0 30 7 63q12 88 23 168q10 68 17 134.5t7 99.5q0 43 -2 87t-15.5 79.5t-41 58.5t-78.5 23q-51 10 -79 42.5t-40 67.5q-14 41 -16 92z" />
<glyph unicode="n" d="M229 852q-1 10 -1 21q0 26 8 53q27 49 55 78q25 25 57 35q7 2 14 2q25 0 52 -25q33 -25 59.5 -28t46 5t32.5 22.5t21 22.5q8 0 26.5 28t54.5 61.5t92.5 61.5t140.5 28q90 -6 149.5 -35t97 -71t56 -91t26 -95t7.5 -83v-54q0 -25 10 -91t33.5 -150t62.5 -174t98 -166 q57 -69 61 -141q0 -8 1 -15q0 -63 -32 -115q-36 -58 -103.5 -96.5t-153.5 -38.5q-55 0 -90 52.5t-55.5 130t-28.5 171t-9 176.5v53q0 50 1 88q2 58 2 71q0 25 -5 66.5t-19.5 81.5t-40 68.5t-68.5 28.5t-65.5 -28.5t-33 -63t-12.5 -67.5t-2 -41q8 -8 12.5 -63.5t4.5 -127 t-4.5 -144.5t-12.5 -116q0 -51 7 -109q3 -27 3 -53q0 -29 -4 -54q-8 -49 -43 -77q-27 -22 -85 -22q-16 0 -34 2q-61 10 -98 51t-53 97q-17 56 -19 122q-1 20 0 41q0 45 4 89q6 64 14.5 118.5t14.5 87.5q0 102 -35.5 190.5t-121.5 122.5q-51 16 -71 47t-24 62z" />
<glyph unicode="o" d="M258 510q2 182 72 387q43 72 103.5 130t151.5 89q83 28 196 28h22q127 -3 305 -54q109 -35 176.5 -97.5t103.5 -139.5t46 -160q8 -65 8 -124q0 -17 -1 -33q-3 -74 -14.5 -134t-17.5 -87q-8 -35 -33.5 -90t-72 -113.5t-113.5 -109.5q-68 -52 -157 -80q-76 -24 -168 -24 q-15 0 -33 1q-112 5 -250 60q-98 41 -162 102.5t-99.5 135t-49 154.5t-13.5 159zM571 414q0 -41 7.5 -84t28 -82t53 -71t85.5 -52q83 -31 150 -31q25 0 48 4q83 16 137.5 58.5t81 90.5t26.5 68q0 14 3 47t3 74t-6 87t-24.5 87t-52.5 74t-89 47q-92 31 -160 33h-14 q-60 0 -104 -16q-50 -18 -82.5 -52t-53.5 -75q-37 -109 -37 -207z" />
<glyph unicode="p" d="M423 1030q11 105 65.5 193t155.5 142q88 47 224 47q20 0 41 -1q117 -18 207 -91t151.5 -165t92.5 -187.5t31 -158.5q3 -19 3 -37q0 -35 -10 -66q-16 -49 -47.5 -87.5t-74.5 -64.5t-88 -34q-23 -12 -66 -22.5t-92 -23.5t-97.5 -35.5t-83 -58.5t-49.5 -89q-8 -25 -8 -54 q0 -35 10 -77q18 -72 39 -151t36.5 -154.5t20.5 -144.5q2 -20 2 -40q0 -44 -8 -82q-12 -53 -44.5 -86.5t-92.5 -40.5q-20 -2 -39 -2q-64 0 -112 27q-60 35 -95.5 89t-50 116.5t-14.5 107.5q6 223 8 426q0 86 1 174q1 44 1 86.5t-1 83.5q-1 82 -3 150.5t-6 114.5 q-11 56 -11 118q0 37 4 78zM700 858q37 -37 60.5 -57.5t51.5 -29.5t69.5 -11t115.5 -2q37 0 57.5 30.5t30.5 67.5q10 43 13 98q0 31 -3 64t-21.5 59.5t-59.5 44t-117 17.5q-74 -39 -114 -87t-58 -91q-23 -51 -25 -103z" />
<glyph unicode="q" d="M322 880v54t2 49t13 86t35.5 102.5t70.5 98.5t117 74.5t173 29.5q82 0 142.5 -22.5t102.5 -58.5t67.5 -82t39.5 -93q24 -83 24 -182q0 -36 -3 -74q-6 -178 -14 -332q-4 -66 -7.5 -133t-7.5 -126.5t-8 -108.5t-8 -78q0 -61 13 -122.5t39 -108t65 -67.5q22 -12 47 -12 q20 0 41 7q44 12 79 12q13 0 25 -2q43 -6 69.5 -29.5t34.5 -59.5q5 -19 5 -39q0 -19 -4 -40q-8 -53 -30 -101t-69 -74q-40 -22 -105 -22h-23q-81 5 -210 58q-82 35 -129 110.5t-70.5 170t-27.5 199.5q-2 53 -2 102.5t2 95.5q4 92 11 163.5t7 100.5q0 43 -7 59.5t-15 20.5 q-10 4 -23 -8q-54 -8 -101 -8q-57 0 -101 12q-82 22 -133.5 66t-78 102.5t-37.5 113t-11 96.5zM580 879q2 -47 22.5 -94.5t79.5 -73.5q104 0 155.5 44t51.5 101q16 37 16 68q0 27 -16.5 48t-69.5 21q-51 27 -81 30q-9 1 -18 1q-18 0 -32 -4q-20 -6 -40.5 -16.5t-53.5 -10.5 q-14 -54 -14 -102v-12z" />
<glyph unicode="r" d="M268 813q-3 19 -3 40q0 43 11 95q23 70 59 110t78 58.5t85 19.5h8q38 0 70 -8q36 -10 62 -25.5t34 -29.5q12 -35 28.5 -48t34 -13t33.5 9t29 21q12 12 36.5 47t67.5 78t107.5 85t156.5 65q21 3 41 3q67 0 121 -31q70 -40 116 -102.5t69.5 -137t23.5 -131.5 q0 -47 -12.5 -86t-38 -65t-67.5 -36q-21 -5 -45.5 -5t-53.5 5q-23 6 -44 6q-23 0 -43 -7q-40 -13 -72 -39.5t-54.5 -57.5t-34.5 -55q-23 -33 -26 -106q-1 -23 -1 -47q0 -52 4 -110q6 -84 14.5 -163.5t8.5 -126.5q0 -35 -3 -82t-23.5 -90t-63.5 -73t-123 -30t-119 31t-51 77 q-7 28 -7 58q0 20 3 41q8 53 21 98q0 35 4 104.5t7 147.5q2 58 2 114v37q-1 74 -13 120q-23 57 -43 84q-20 26 -52 36q-25 8 -62 7q-10 -1 -20 -1q-50 -2 -131 -2q-17 -3 -32 -3q-45 0 -65 28q-28 37 -32 86z" />
<glyph unicode="s" d="M281 14q0 125 49 194q48 68 118 90q34 11 69 10q36 0 74 -12q73 -22 120 -79q39 -47 84 -56q27 -5 52 -5q17 0 32 2q45 8 88 32q43 45 43 97q0 20 -10.5 45.5t-35 52.5t-67.5 55.5t-109 57.5q-100 33 -164.5 79t-101.5 98q-37 53 -50 109q-11 49 -11 95v14q4 125 74 262 q66 86 136 125t141 48q36 4 71 4.5t71 -4.5q70 -9 138 -17q68 -10 102.5 -60.5t41.5 -114.5q2 -18 2 -36q0 -46 -14 -94q-18 -66 -57 -105q-43 -34 -70 -34h-5q-28 3 -54 17t-59 26q-12 4 -26 5q-27 0 -64 -14q-47 -10 -49 -29.5t14 -42.5q20 -25 59 -53q66 -39 127 -94 q53 -47 109.5 -117.5t95.5 -167.5q40 -127 40 -229q1 -44 -7 -83q-24 -130 -93 -218t-165 -138.5t-182 -68.5q-57 -14 -126 -14q-22 0 -46 2q-96 6 -182.5 47t-144.5 118.5t-58 200.5z" />
<glyph unicode="t" d="M281 729q-6 24 -6 45q0 28 11 50q19 38 61 58q43 19 101 23q23 2 47 1q36 0 74 -3q33 -4 54.5 9.5t36 37t21.5 55t11 64.5q3 28 3 60q0 55 -9 120v11q0 36 12 63t45 43q18 9 45 9q24 0 54 -7q58 -16 76 -59q17 -39 16 -87v-10q-2 -54 -15.5 -112t-21.5 -101 q0 -37 3 -60.5t19.5 -32.5t51.5 -1t100 37q43 14 73 14q20 0 34 -6q36 -16 53 -45q14 -29 14 -70v-10v-170q-1 -72 -63 -89q-23 -6 -49 -6q-45 0 -99 18q-13 5 -24 5q-22 1 -36 -17q-22 -26 -34 -70.5t-17 -93t-5 -76.5q0 -29 13 -59.5t36.5 -55.5t54.5 -41t68 -16 q72 0 113.5 -41t41.5 -115q0 -43 -28.5 -86t-82.5 -74q-56 -31 -134 -42q-28 -4 -58 -4q-56 0 -121 13q-68 14 -103.5 61.5t-49.5 111.5q-13 56 -13 120v18q2 74 12.5 144t21.5 129.5t18 91.5q0 49 -16.5 76t-44.5 38t-61.5 9t-70.5 -8q-30 0 -64 -3q-9 -1 -17 -1 q-26 0 -50 7q-33 9 -60.5 38t-41.5 92z" />
<glyph unicode="u" d="M283 221v649q0 154 27.5 230t62.5 104q30 27 69 27q11 0 23 -2q17 3 32 3q50 0 82 -30q42 -39 64.5 -110.5t29.5 -162.5q6 -80 6 -160v-23q-1 -92 -6 -170t-5 -123q0 -66 6 -119t26.5 -90t55.5 -56.5t94 -19.5q39 0 60.5 39t29.5 101.5t8 139t-4 151.5t-9 140.5t-5 104.5 q0 68 5 133t21.5 116.5t46 83t78.5 31.5t88 -22.5t65 -54t40 -68.5t14 -66q0 -20 6 -73.5t15.5 -127t19.5 -157.5t19.5 -164t15.5 -147.5t6 -106.5q0 -57 11.5 -81.5t25.5 -41t25.5 -37t11.5 -67.5q-10 -51 -41 -79t-67 -40t-70.5 -14t-53.5 -2q-12 6 -19 14t-17.5 12t-28 3 t-54 -11t-95 -32.5t-148.5 -61.5t-170 -39t-144.5 27.5t-114.5 77t-83 111.5q-34 62 -48 130q-10 46 -9 89q0 21 2 42z" />
<glyph unicode="v" d="M160 936q-4 21 -3 41q0 53 25 97q35 62 111 99t178 37q18 2 35 2q68 0 108 -28q50 -34 77.5 -97t47 -148t56.5 -179q47 -92 83 -110q17 -9 33 -9q18 -1 33 11q29 22 47.5 64t28.5 70q0 12 1 44t9 71t24.5 80t47.5 69t77 40q17 4 38 5q34 0 77 -12q74 -18 116 -53t60 -78 q17 -41 16 -86v-5q-1 -48 -12.5 -91t-29 -78t-29.5 -53q-8 -29 -18.5 -80t-32 -118.5t-56 -150.5t-89.5 -177q-47 -93 -109 -109q-22 -6 -44 -5l-82 19q-62 30 -119.5 93t-96.5 127q-18 33 -51 72.5t-73 84.5t-85 91t-88 89q-102 100 -221 211q-76 74 -90 150z" />
<glyph unicode="w" d="M-68 414q6 72 21 145q35 166 117 352q-8 23 6 61t44 79t71.5 80.5t90.5 70.5q48 30 98 46q32 10 62 10q18 0 35 -3q57 -23 104.5 -52t76 -71t40.5 -96q5 -26 5 -55q0 -33 -7 -70q-8 -47 -36.5 -83.5t-67.5 -67.5t-83 -55.5t-84 -47t-68.5 -45t-37.5 -45.5 q-16 -25 -24 -57.5t-7 -63t16 -51t49 -20.5t87.5 29.5t130.5 99.5q79 78 141 108q56 28 103 28h9q50 -3 92 -30.5t82 -63.5t81 -74t88 -60q48 -25 82 -25q16 -1 29 5q41 18 52 65q4 18 4 40q0 33 -10 71q-17 64 -64 124q-48 59 -64 131q-9 39 -8 76q0 31 6 61 q14 64 61.5 111t128.5 59q27 4 51 5q41 0 75 -13q54 -20 92 -61t62 -97.5t36 -113.5q12 -59 51 -128t78 -142.5t61 -148.5q11 -36 11 -70q0 -38 -13 -74q-63 -125 -131.5 -192.5t-140.5 -92.5q-52 -18 -104 -18q-20 0 -40 2q-72 10 -137 37.5t-124.5 65.5t-106.5 69 q-72 49 -132 57q-17 2 -32 2q-41 -1 -79 -15q-52 -20 -100 -65t-95 -104q-60 -59 -116 -88q-51 -26 -111 -26h-13q-68 3 -154 39t-202 108q-59 35 -90 90q-30 54 -42 120q-7 42 -8 87q0 25 2 51z" />
<glyph unicode="x" d="M254 807q-5 24 -5 50q0 39 11 81q31 70 87 104q52 32 113 32h11q68 -3 139.5 -43t130.5 -120q33 -53 70 -69q25 -11 51 -12q12 0 24 2q38 8 73.5 33.5t66.5 55t54.5 57.5t37.5 40q18 20 61.5 61t97.5 63q32 14 68 14q25 0 49 -6q62 -15 122 -106q9 -48 9 -86 q1 -51 -15 -84q-26 -59 -68.5 -88.5t-85.5 -40t-53 -20.5q-10 0 -36 -2t-56.5 -17.5t-57.5 -48t-35 -94.5q-4 -19 -4 -36q0 -28 10 -50q16 -35 46 -57.5t66 -32.5t67 -10q31 -10 70.5 -35t70.5 -62.5t41 -87.5q2 -12 2 -24q0 -40 -23 -86q-60 -70 -112 -86q-28 -9 -56 -9 q-22 0 -44 6q-48 13 -94 41.5t-95 47.5q-46 29 -93 29h-6q-50 -2 -97.5 -28t-92.5 -69t-84 -92q-31 -49 -75 -83t-94 -44q-19 -4 -38 -4q-32 1 -65 11q-53 16 -105 65q-48 50 -48 110q0 61 36 121q35 58 96.5 105t130.5 67q70 10 104 54q28 36 28 80q0 10 -2 20 q-8 55 -58.5 108.5t-150.5 83.5q-51 14 -86 36t-57.5 47.5t-34 53t-17.5 54.5z" />
<glyph unicode="y" d="M112 946q-1 13 -1 26q0 31 11 64q15 47 61 89t139 63q49 13 88 13q22 0 41 -4q53 -11 90 -42t58.5 -75t32.5 -91t14 -90t3 -70q-9 -37 -9 -69v-6q1 -35 19.5 -57.5t56.5 -32.5q18 -4 40 -4q26 0 59 6q17 -3 30 -3q37 0 52 19q19 24 19 61v9q-3 43 -19 95t-27 93 q-20 31 -32 86q-5 26 -5 53q0 30 7 59q12 58 58 103t138 55q76 -6 132.5 -37.5t95.5 -77.5t62.5 -100.5t34.5 -106.5t11 -97.5t-6 -71.5q-6 -29 -6 -49.5t4 -48t13 -65.5t20.5 -99.5t24 -151.5t26.5 -221q9 -83 9 -152q0 -85 -13 -151q-25 -119 -74 -193.5t-110.5 -116.5 t-112.5 -73q-41 -14 -96.5 -26.5t-114.5 -14.5h-21q-49 0 -97 7q-58 9 -105 38t-80 81t-39 136q-2 21 -2 40q0 83 35 125q43 52 102 66q36 9 71 9q23 0 46 -3q59 -10 80 -20q17 -17 50 -17q11 0 23 1q50 8 91 69q20 8 38.5 40t22.5 75q1 8 1 17q0 35 -14 74q-16 48 -62 88 t-129 66.5t-214 26.5q-92 0 -168 23t-135 58.5t-105 82.5t-79 97q-80 113 -117 260q-10 20 -17 63z" />
<glyph unicode="z" d="M74 878q4 46 25.5 89t57.5 80.5t71.5 68.5t68.5 49.5t49 24.5q190 74 350 110q68 16 136 26q52 7 99 7q15 0 29 -1q60 -3 104 -20.5t66 -54.5q52 -84 64 -145q8 -37 7 -70q0 -22 -3 -42q-8 -50 -29.5 -95t-38.5 -96q-12 -35 -22 -78t-16 -87q-4 -35 -4 -66v-17 q2 -39 13 -62.5t35 -26.5h4q23 0 58 26q68 33 119 57.5t91 30.5q12 2 23 2q25 0 47 -10q30 -14 56 -58q24 -32 24 -65q0 -11 -2 -23q-12 -45 -47.5 -87t-85 -79t-90.5 -61q-29 -16 -75 -47t-104 -63t-122 -59q-64 -26 -126 -35q-24 -4 -48 -4q-36 0 -72 9q-58 14 -102 66 q-35 49 -38 92q-1 8 -1 16q1 34 11 62q12 34 34.5 65t38.5 55q6 10 25.5 39t42 67t43 84t28.5 91q4 19 4 38q0 26 -6 51q-12 44 -51 77q-33 43 -86 44h-5q-52 -1 -106 -19q-58 -20 -107.5 -48t-74.5 -45q-16 -8 -55 -23.5t-87 -19.5q-9 -1 -18 -1q-40 1 -82 15 q-52 18 -94 74q-26 40 -26 82v10z" />
<glyph unicode="&#xad;" d="M328 584q0 74 47 108.5t104 46.5q68 14 154 6q27 -4 51 -12q23 -6 47.5 -16t46.5 -25q12 -6 64.5 -13t120 -10t139.5 -2t125 7q111 14 164 -30t53 -167q0 -68 -37 -98.5t-85 -41.5t-92 -8t-56 3q-10 0 -43 3t-80 7t-102.5 8t-108 8t-98.5 7.5t-72 3.5q-41 6 -99.5 10 t-113 22.5t-92 60.5t-37.5 122z" />
<glyph unicode="&#x2000;" horiz-adv-x="952" />
<glyph unicode="&#x2001;" horiz-adv-x="1905" />
<glyph unicode="&#x2002;" horiz-adv-x="952" />
<glyph unicode="&#x2003;" horiz-adv-x="1905" />
<glyph unicode="&#x2004;" horiz-adv-x="635" />
<glyph unicode="&#x2005;" horiz-adv-x="476" />
<glyph unicode="&#x2006;" horiz-adv-x="317" />
<glyph unicode="&#x2007;" horiz-adv-x="317" />
<glyph unicode="&#x2008;" horiz-adv-x="238" />
<glyph unicode="&#x2009;" horiz-adv-x="381" />
<glyph unicode="&#x200a;" horiz-adv-x="105" />
<glyph unicode="&#x2010;" d="M328 584q0 74 47 108.5t104 46.5q68 14 154 6q27 -4 51 -12q23 -6 47.5 -16t46.5 -25q12 -6 64.5 -13t120 -10t139.5 -2t125 7q111 14 164 -30t53 -167q0 -68 -37 -98.5t-85 -41.5t-92 -8t-56 3q-10 0 -43 3t-80 7t-102.5 8t-108 8t-98.5 7.5t-72 3.5q-41 6 -99.5 10 t-113 22.5t-92 60.5t-37.5 122z" />
<glyph unicode="&#x2011;" d="M328 584q0 74 47 108.5t104 46.5q68 14 154 6q27 -4 51 -12q23 -6 47.5 -16t46.5 -25q12 -6 64.5 -13t120 -10t139.5 -2t125 7q111 14 164 -30t53 -167q0 -68 -37 -98.5t-85 -41.5t-92 -8t-56 3q-10 0 -43 3t-80 7t-102.5 8t-108 8t-98.5 7.5t-72 3.5q-41 6 -99.5 10 t-113 22.5t-92 60.5t-37.5 122z" />
<glyph unicode="&#x2012;" d="M328 584q0 74 47 108.5t104 46.5q68 14 154 6q27 -4 51 -12q23 -6 47.5 -16t46.5 -25q12 -6 64.5 -13t120 -10t139.5 -2t125 7q111 14 164 -30t53 -167q0 -68 -37 -98.5t-85 -41.5t-92 -8t-56 3q-10 0 -43 3t-80 7t-102.5 8t-108 8t-98.5 7.5t-72 3.5q-41 6 -99.5 10 t-113 22.5t-92 60.5t-37.5 122z" />
<glyph unicode="&#x2013;" horiz-adv-x="1613" d="M328 584q0 74 43 108.5t96 46.5q62 14 141 6q25 -4 47 -12q21 -6 43.5 -16t42.5 -25q11 -6 59 -13t110 -10t128 -2t115 7q102 14 150.5 -30t48.5 -167q0 -68 -34 -98.5t-78 -41.5t-84.5 -8t-51.5 3q-9 0 -39 3t-73.5 7t-94.5 8t-99 8l-90 7.5t-66 3.5q-38 6 -91.5 10 t-103.5 22.5t-84.5 60.5t-34.5 122z" />
<glyph unicode="&#x2014;" horiz-adv-x="2637" d="M328 584q0 74 86.5 108.5t190.5 46.5q125 14 283 6q49 -4 93 -12q43 -6 87.5 -16t85.5 -25q22 -6 118.5 -13t220 -10t256 -2t229.5 7q203 14 300.5 -30t97.5 -167q0 -68 -68 -98.5t-156 -41.5t-168.5 -8t-102.5 3q-19 0 -79.5 3t-146.5 7t-188 8t-198.5 8t-181 7.5 t-131.5 3.5q-76 6 -183 10t-207 22.5t-169 60.5t-69 122z" />
<glyph unicode="&#x202f;" horiz-adv-x="381" />
<glyph unicode="&#x205f;" horiz-adv-x="476" />
<glyph unicode="&#xe000;" horiz-adv-x="1157" d="M0 0v1157h1157v-1157h-1157z" />
</font>
</defs>
</svg>
